<?xml version="1.0" encoding="utf-8"?>
<!-- Generator: Adobe Illustrator 15.0.0, SVG Export Plug-In . SVG Version: 6.00 Build 0)  -->
<!DOCTYPE svg PUBLIC "-//W3C//DTD SVG 1.1//EN" "http://www.w3.org/Graphics/SVG/1.1/DTD/svg11.dtd">
<svg version="1.1" id="Layer_1" xmlns="http://www.w3.org/2000/svg" xmlns:xlink="http://www.w3.org/1999/xlink" x="0px" y="0px"
	 width="24.01px" height="45.674px" viewBox="0 0 24.01 45.674" enable-background="new 0 0 24.01 45.674" xml:space="preserve">
<g>
	<path d="M24.006,13.673c0.085-0.427-1.196-1.025-1.452-1.452c-0.256-0.427,0.854-2.648,0.343-3.673
		c-0.514-1.025-0.688-2.637-1.881-4.442c-2.938-4.449-8.199-4.1-8.926-4.1c-0.726,0-5.986-0.349-8.926,4.1
		C1.973,5.911,1.798,7.523,1.286,8.548c-0.512,1.025,0.598,3.246,0.342,3.673c-0.256,0.427-1.538,1.025-1.452,1.452
		c0.085,0.427,1.794,2.477,1.879,3.16c0.085,0.684-0.427,2.52,0.085,3.929c1.966-1.879,3.189-2.648,3.589-3.16
		C5.342,17.09,5.043,16.749,5.3,15.979c0.256-0.769,0.836-1.941,1.108-2.135c0.531-0.379,3.846,0.694,3.846,1.025
		c0,1.025-1.708,2.135-4.1,4.185c-2.393,2.05-5.381,4.613-5.296,5.125c0.086,0.514,5.04,10.293,4.869,11.83
		c-0.172,1.538-1.111,4.441-1.111,4.441s1.88,2.648,2.307,2.393c0.428-0.257,0.341-0.513,0.085-1.281s-0.854-1.965-0.854-2.392
		s1.537-2.478,1.537-2.478s-0.382-2.414-0.468-2.84c-0.085-0.428-0.558-0.919-0.813-1.517c-0.256-0.599-2.989-8.157-2.989-8.157
		L6.24,22.3c0,0,0.769,1.109,1.452,1.452c0.684,0.342-0.769,3.801-0.769,4.144c0,0.34,3.331,7.088,3.245,7.602
		c-0.085,0.512-1.622,5.723-1.537,6.32s1.455,1.623,1.539,2.051c0.084,0.427,0.426,1.964,0.854,1.793
		c0.427-0.172,0.646-0.998,0.063-2.307c-0.402-0.899-1.004-1.281-0.919-2.135c0.086-0.855,1.88-4.271,1.538-5.809
		s-2.422-5.874-2.422-6.455s0.644-3.821,0.846-4.338c0.231-0.588,0.876-1.468,1.106-1.734c0.355-0.413,0.854,0.398,0.854,0.398
		s0.499-0.811,0.855-0.398c0.229,0.266,0.875,1.146,1.105,1.734c0.202,0.517,0.846,3.757,0.846,4.338s-2.08,4.918-2.421,6.455
		c-0.343,1.537,1.451,4.953,1.536,5.809c0.086,0.854-0.517,1.235-0.918,2.135c-0.583,1.309-0.362,2.135,0.064,2.307
		c0.427,0.171,0.769-1.366,0.853-1.793c0.083-0.428,1.453-1.453,1.539-2.051c0.085-0.598-1.452-5.809-1.538-6.32
		c-0.085-0.514,3.246-7.262,3.246-7.602c0-0.343-1.452-3.802-0.769-4.144c0.684-0.343,1.452-1.452,1.452-1.452l2.818,1.879
		c0,0-2.732,7.559-2.988,8.157c-0.258,0.598-0.729,1.089-0.814,1.517c-0.086,0.426-0.468,2.84-0.468,2.84s1.538,2.051,1.538,2.478
		s-0.599,1.623-0.854,2.392c-0.257,0.769-0.342,1.024,0.085,1.281c0.427,0.256,2.307-2.393,2.307-2.393s-0.939-2.903-1.11-4.441
		c-0.171-1.537,4.783-11.316,4.869-11.83c0.085-0.512-2.905-3.075-5.296-5.125c-2.393-2.05-4.101-2.989-4.101-4.185
		c0-0.331,3.314-1.404,3.847-1.025c0.271,0.194,0.852,1.366,1.107,2.135s-0.043,1.111-0.427,1.623
		c0.399,0.512,1.623,1.281,3.587,3.16c0.513-1.409,0-3.245,0.086-3.929C22.212,16.15,23.92,14.1,24.006,13.673 M13.942,19.951
		c-0.257,0.512-0.911,0.726-1.852,0.726c-0.938,0-1.594-0.214-1.85-0.726c-0.257-0.513,0.981-2.861,1.85-2.861
		C12.959,17.09,14.198,19.438,13.942,19.951"/>
</g>
</svg>
