<?xml version="1.0" encoding="utf-8"?>
<!-- Generator: Adobe Illustrator 15.0.0, SVG Export Plug-In . SVG Version: 6.00 Build 0)  -->
<!DOCTYPE svg PUBLIC "-//W3C//DTD SVG 1.1//EN" "http://www.w3.org/Graphics/SVG/1.1/DTD/svg11.dtd">
<svg version="1.1" id="Layer_1" xmlns="http://www.w3.org/2000/svg" xmlns:xlink="http://www.w3.org/1999/xlink" x="0px" y="0px"
	 width="16.999px" height="18.192px" viewBox="0 0 16.999 18.192" enable-background="new 0 0 16.999 18.192" xml:space="preserve">
<path d="M13.228,2.011c-0.024-0.007-0.054-0.003-0.078,0.018L4.575,9.257C4.519,9.305,4.49,9.378,4.5,9.451l0.319,2.34
	c0.011,0.079-0.011,0.159-0.06,0.223l-1.197,1.576l0.37,0.281l5.441-6.755c0.011-0.014,0.033,0.002,0.021,0.017l-2.279,3.182
	l3.14-1.561l3.031-6.62C13.312,2.078,13.276,2.024,13.228,2.011"/>
<path d="M2.713,14.261l-0.067-0.025l0.389,0.143c0.052-0.025,0.104-0.051,0.157-0.073l0.202-0.553
	c-0.172-0.026-0.345-0.026-0.511,0.001L2.713,14.261z"/>
<path d="M3.065,13.201c0.158-0.006,0.317,0.007,0.476,0.037l0.074-0.098l0.211-0.581c0.027-0.075,0.083-0.136,0.156-0.17
	l0.316-0.147l0.278-0.367c0.013-0.016,0.018-0.034,0.015-0.053L4.28,9.538L3.065,13.201z"/>
<path d="M2.466,12.066l-0.554,1.522c0.193-0.136,0.407-0.237,0.631-0.303L5.418,6.02C5.425,6.002,5.45,6.012,5.444,6.029
	l-1.01,3.047l2.34-1.974l0.901-7.001c0.013-0.094-0.111-0.139-0.162-0.059L1.471,9.489c-0.039,0.062-0.045,0.14-0.014,0.207
	l0.999,2.139C2.49,11.907,2.493,11.991,2.466,12.066"/>
<path d="M16.932,5.714c-0.019-0.005-0.04-0.004-0.062,0.007L6.829,10.714c-0.066,0.033-0.11,0.098-0.118,0.17l-0.243,2.35
	c-0.009,0.079-0.048,0.152-0.11,0.203l-1.536,1.248l0.293,0.361l6.885-5.276c0.014-0.011,0.031,0.01,0.017,0.022L5.44,15.448
	l0.293,0.36l1.537-1.248c0.062-0.051,0.142-0.074,0.221-0.066l2.349,0.244c0.073,0.008,0.146-0.023,0.19-0.081l6.949-8.802
	C17.023,5.8,16.988,5.729,16.932,5.714"/>
<path d="M3.387,16.925c0.132-0.162,0.239-0.348,0.313-0.555c0.194-0.533,0.136-1.095-0.114-1.558
	c-0.199,0.056-0.387,0.151-0.551,0.284c-0.028,0.022-0.055,0.048-0.081,0.072c0.15,0.285,0.186,0.629,0.066,0.955
	c-0.094,0.258-0.269,0.463-0.486,0.598c0.013,0.039,0.026,0.078,0.041,0.117c0.049,0.02,0.099,0.035,0.148,0.049
	C2.945,16.948,3.171,16.958,3.387,16.925"/>
<path d="M2.542,14.72c0.035-0.032,0.072-0.064,0.11-0.096c0.164-0.133,0.345-0.24,0.537-0.318c-0.178-0.161-0.391-0.291-0.63-0.379
	c-0.037-0.014-0.075-0.025-0.112-0.037c-0.224,0.108-0.425,0.269-0.583,0.476c-0.044,0.06-0.082,0.12-0.117,0.183
	c0.186-0.026,0.378-0.01,0.565,0.059C2.395,14.636,2.472,14.675,2.542,14.72"/>
<path d="M2.058,17.179c-0.071-0.043-0.141-0.09-0.209-0.141c-0.066-0.051-0.13-0.104-0.189-0.162
	c-0.052-0.012-0.104-0.025-0.155-0.043c-0.615-0.225-0.932-0.904-0.709-1.518c0.059-0.158,0.146-0.296,0.253-0.41
	c0.064-0.309,0.196-0.604,0.394-0.861c0.057-0.076,0.12-0.146,0.185-0.211c-0.669,0.101-1.263,0.555-1.511,1.235
	c-0.359,0.99,0.15,2.084,1.142,2.444c0.349,0.125,0.71,0.145,1.047,0.072C2.206,17.457,2.123,17.321,2.058,17.179"/>
<path d="M4.558,14.22c0.093,0.025,0.183,0.059,0.271,0.094l1.084-1.424c0.049-0.064,0.12-0.106,0.2-0.117l0.174-0.024l0.155-1.491
	l-2.092,2.92C4.42,14.187,4.488,14.202,4.558,14.22"/>
<path d="M4.179,14.767c0.22,0.397,0.198,0.902-0.094,1.287c-0.384,0.506-1.095,0.614-1.612,0.258
	c0.006,0.315,0.107,0.631,0.312,0.899c0.689,0.131,1.423-0.124,1.876-0.72c0.3-0.395,0.422-0.867,0.381-1.324
	c-0.181-0.171-0.399-0.294-0.643-0.359C4.326,14.789,4.253,14.775,4.179,14.767"/>
<path d="M1.984,15.574c-0.066-0.322,0.002-0.67,0.216-0.953c0.31-0.408,0.833-0.557,1.295-0.412
	c0.346-0.084,0.711-0.082,1.062,0.013c0.058,0.015,0.113,0.032,0.168,0.053c-0.113-0.17-0.257-0.323-0.429-0.455
	c-0.839-0.637-2.035-0.474-2.673,0.364c-0.621,0.818-0.481,1.977,0.303,2.624C1.825,16.399,1.846,15.969,1.984,15.574"/>
<path d="M2.519,17.487c0.664,0.817,1.865,0.942,2.683,0.278C6.02,17.101,6.145,15.9,5.48,15.082s-1.866-0.941-2.684-0.277
	S1.854,16.668,2.519,17.487 M4.918,15.538c0.412,0.509,0.335,1.253-0.173,1.665c-0.507,0.412-1.253,0.335-1.665-0.172
	c-0.412-0.508-0.335-1.254,0.173-1.666C3.76,14.953,4.506,15.03,4.918,15.538"/>
</svg>
