<?xml version="1.0" encoding="utf-8"?>
<!-- Generator: Adobe Illustrator 15.0.0, SVG Export Plug-In . SVG Version: 6.00 Build 0)  -->
<!DOCTYPE svg PUBLIC "-//W3C//DTD SVG 1.1//EN" "http://www.w3.org/Graphics/SVG/1.1/DTD/svg11.dtd">
<svg version="1.1" id="Layer_1" xmlns="http://www.w3.org/2000/svg" xmlns:xlink="http://www.w3.org/1999/xlink" x="0px" y="0px"
	 width="50.4px" height="43.66px" viewBox="0 0 50.4 43.66" enable-background="new 0 0 50.4 43.66" xml:space="preserve">
<path d="M25.618,43.298l11.558-20.02c0.21-0.363-0.053-0.816-0.471-0.816H13.589c-0.419,0-0.681,0.453-0.471,0.816l11.559,20.02
	C24.886,43.661,25.409,43.661,25.618,43.298l11.558-20.02c0.21-0.363-0.053-0.816-0.471-0.816H13.589
	c-0.419,0-0.681,0.453-0.471,0.816l11.559,20.02C24.886,43.661,25.409,43.661,25.618,43.298"/>
<path d="M24.833,5.664l-7.715,13.364c-0.14,0.241,0.035,0.544,0.314,0.544h15.431c0.279,0,0.454-0.303,0.313-0.544L25.461,5.664
	C25.322,5.421,24.973,5.421,24.833,5.664l-7.715,13.364c-0.14,0.241,0.035,0.544,0.314,0.544h15.431
	c0.279,0,0.454-0.303,0.313-0.544L25.461,5.664C25.322,5.421,24.973,5.421,24.833,5.664"/>
<path d="M38.632,20.836l11.56-20.02C50.401,0.454,50.139,0,49.72,0H26.602c-0.418,0-0.68,0.453-0.47,0.816l11.56,20.02
	C37.901,21.199,38.423,21.199,38.632,20.836l11.56-20.02C50.401,0.454,50.139,0,49.72,0H26.602c-0.418,0-0.68,0.453-0.47,0.816
	l11.56,20.02C37.901,21.199,38.423,21.199,38.632,20.836"/>
<path d="M12.709,20.836l11.559-20.02C24.478,0.454,24.216,0,23.798,0H0.681C0.262,0,0,0.454,0.209,0.816l11.559,20.02
	C11.978,21.199,12.5,21.199,12.709,20.836l11.559-20.02C24.478,0.454,24.216,0,23.798,0H0.681C0.262,0,0,0.454,0.209,0.816
	l11.559,20.02C11.978,21.199,12.5,21.199,12.709,20.836"/>
</svg>
