<?xml version="1.0" encoding="utf-8"?>
<!-- Generator: Adobe Illustrator 15.0.0, SVG Export Plug-In . SVG Version: 6.00 Build 0)  -->
<!DOCTYPE svg PUBLIC "-//W3C//DTD SVG 1.1//EN" "http://www.w3.org/Graphics/SVG/1.1/DTD/svg11.dtd">
<svg version="1.1" id="Layer_1" xmlns="http://www.w3.org/2000/svg" xmlns:xlink="http://www.w3.org/1999/xlink" x="0px" y="0px"
	 width="46.177px" height="46.176px" viewBox="0 0 46.177 46.176" enable-background="new 0 0 46.177 46.176" xml:space="preserve">
<path d="M23.088,4.59c-10.199,0-18.497,8.298-18.497,18.498c0,10.198,8.298,18.497,18.497,18.497c10.2,0,18.498-8.299,18.498-18.497
	C41.586,12.888,33.288,4.59,23.088,4.59 M23.974,36.022c2.102-1.187,3.526-3.438,3.526-6.019c0-3.812-3.101-6.912-6.912-6.912
	c-2.622,0-4.908,1.468-6.079,3.625c0.376-4.408,4.077-7.881,8.579-7.881c4.751,0,8.616,3.864,8.616,8.616
	C31.704,31.904,28.311,35.577,23.974,36.022 M16.069,30.004c0-2.492,2.027-4.52,4.519-4.52c2.492,0,4.519,2.027,4.519,4.52
	c0,2.491-2.027,4.519-4.519,4.519C18.096,34.522,16.069,32.495,16.069,30.004 M23.088,16.442c-6.07,0-11.009,4.939-11.009,11.01
	c0,4.397,2.598,8.19,6.335,9.952c-5.952-1.036-10.496-6.227-10.496-12.47c0-6.986,5.684-12.67,12.67-12.67
	c6.269,0,11.476,4.582,12.481,10.571C31.319,19.067,27.509,16.442,23.088,16.442 M26.282,38.871
	c5.488-2.251,9.367-7.646,9.367-13.937c0-8.306-6.757-15.063-15.062-15.063c-4.684,0-8.874,2.15-11.638,5.515
	c2.735-5.002,8.047-8.403,14.138-8.403c8.881,0,16.104,7.226,16.104,16.105C39.192,30.874,33.637,37.386,26.282,38.871"/>
<path d="M23.088,0C10.358,0,0,10.356,0,23.088c0,12.729,10.358,23.088,23.088,23.088c12.729,0,23.089-10.358,23.089-23.088
	C46.177,10.356,35.817,0,23.088,0 M23.088,43.782c-11.411,0-20.695-9.283-20.695-20.694c0-11.412,9.284-20.695,20.695-20.695
	c11.411,0,20.695,9.283,20.695,20.695C43.783,34.499,34.499,43.782,23.088,43.782"/>
</svg>
