<?xml version="1.0" encoding="utf-8"?>
<!-- Generator: Adobe Illustrator 15.0.0, SVG Export Plug-In . SVG Version: 6.00 Build 0)  -->
<!DOCTYPE svg PUBLIC "-//W3C//DTD SVG 1.1//EN" "http://www.w3.org/Graphics/SVG/1.1/DTD/svg11.dtd">
<svg version="1.1" id="Layer_1" xmlns="http://www.w3.org/2000/svg" xmlns:xlink="http://www.w3.org/1999/xlink" x="0px" y="0px"
	 width="19.151px" height="16.92px" viewBox="0 0 19.151 16.92" enable-background="new 0 0 19.151 16.92" xml:space="preserve">
<path d="M11.829,11.111c0,0,0.345,3.144,0.418,4.646c0.503,0.098,1.181,0.34,1.229,0.68c0.388,0.149,0.709,0.066,0.824,0
	c0.164-1.121-0.437-3.973,0.485-5.137c0.92-1.162,3.245-1.695,3.826-3.077c0.54-1.282-0.09-4.089,0.283-5.298
	c0.021-0.064-0.06-0.111-0.107-0.065c-1.293,1.236-1.338,3.596-1.774,4.079c-0.672,0.745-3.361,1.278-4.651,2.693
	C11.924,10.111,11.829,11.111,11.829,11.111"/>
<path d="M9.512,0.073C9.15,2.355,7.395,13.658,7.711,15.757c0.66,0.115,1.017,1.164,1.865,1.164c0.848,0,1.204-1.049,1.864-1.164
	c0.316-2.099-1.439-13.402-1.801-15.684C9.628,0,9.523,0,9.512,0.073"/>
<path d="M7.322,11.111c0,0-0.345,3.144-0.418,4.646c-0.503,0.098-1.181,0.34-1.229,0.68c-0.388,0.149-0.709,0.066-0.824,0
	c-0.164-1.121,0.437-3.973-0.485-5.137c-0.92-1.162-3.245-1.695-3.826-3.077C0,6.941,0.63,4.134,0.257,2.925
	C0.236,2.861,0.316,2.814,0.364,2.86c1.293,1.236,1.338,3.596,1.774,4.079C2.811,7.684,5.5,8.217,6.79,9.632
	C7.228,10.111,7.322,11.111,7.322,11.111"/>
</svg>
