<?xml version="1.0" encoding="utf-8"?>
<!-- Generator: Adobe Illustrator 15.0.0, SVG Export Plug-In . SVG Version: 6.00 Build 0)  -->
<!DOCTYPE svg PUBLIC "-//W3C//DTD SVG 1.1//EN" "http://www.w3.org/Graphics/SVG/1.1/DTD/svg11.dtd">
<svg version="1.1" id="Layer_1" xmlns="http://www.w3.org/2000/svg" xmlns:xlink="http://www.w3.org/1999/xlink" x="0px" y="0px"
	 width="45.062px" height="44.64px" viewBox="0 0 45.062 44.64" enable-background="new 0 0 45.062 44.64" xml:space="preserve">
<path d="M45.062,34.187L41.289,3.688C41.262,3.479,41.163,3.293,41,3.16c-1.02-0.83-5.312-3.651-16.003-3.086
	c-9.01,0.478-13.087,3.931-14.135,4.988c-0.183,0.185-0.259,0.443-0.216,0.7l4.067,24.347l0.006,0.006
	c-2.322-0.78-5.353-0.588-8.259,0.749c-4.909,2.256-7.596,6.898-6,10.367c1.595,3.469,6.867,4.452,11.774,2.196
	c4.216-1.938,6.782-5.633,6.417-8.835l0.043,0.05l-3.48-19.491c0,0,2.868-3.015,11.547-3.751c8.679-0.735,11.915,0.736,11.915,0.736
	l2.229,17.459l0.004,0.005c-2.299-0.712-5.248-0.495-8.082,0.808c-4.909,2.257-7.596,6.898-6,10.368
	c1.595,3.469,6.866,4.452,11.774,2.195c4.214-1.938,6.781-5.632,6.417-8.833L45.062,34.187z"/>
</svg>
