<?xml version="1.0" encoding="utf-8"?>
<!-- Generator: Adobe Illustrator 15.0.0, SVG Export Plug-In . SVG Version: 6.00 Build 0)  -->
<!DOCTYPE svg PUBLIC "-//W3C//DTD SVG 1.1//EN" "http://www.w3.org/Graphics/SVG/1.1/DTD/svg11.dtd">
<svg version="1.1" id="Layer_1" xmlns="http://www.w3.org/2000/svg" xmlns:xlink="http://www.w3.org/1999/xlink" x="0px" y="0px"
	 width="46.176px" height="46.175px" viewBox="0 0 46.176 46.175" enable-background="new 0 0 46.176 46.175" xml:space="preserve">
<path d="M36.985,26.812l9.19-3.724l-9.19-3.725l6.098-7.819l-9.821,1.37l1.37-9.821l-7.82,6.097L23.088,0l-3.725,9.189l-7.819-6.097
	l1.37,9.821l-9.821-1.37l6.097,7.819L0,23.088l9.189,3.724l-6.097,7.82l9.821-1.371l-1.37,9.821l7.819-6.098l3.725,9.19l3.724-9.19
	l7.82,6.098l-1.37-9.821l9.821,1.371L36.985,26.812z M23.088,34.502c-6.304,0-11.414-5.11-11.414-11.414s5.11-11.415,11.414-11.415
	s11.414,5.111,11.414,11.415S29.392,34.502,23.088,34.502"/>
<path d="M30.263,23.088c0,3.963-3.212,7.175-7.175,7.175s-7.176-3.212-7.176-7.175c0-3.964,3.213-7.176,7.176-7.176
	S30.263,19.124,30.263,23.088"/>
</svg>
