<?xml version="1.0" encoding="utf-8"?>
<!-- Generator: Adobe Illustrator 15.0.0, SVG Export Plug-In . SVG Version: 6.00 Build 0)  -->
<!DOCTYPE svg PUBLIC "-//W3C//DTD SVG 1.1//EN" "http://www.w3.org/Graphics/SVG/1.1/DTD/svg11.dtd">
<svg version="1.1" id="Layer_1" xmlns="http://www.w3.org/2000/svg" xmlns:xlink="http://www.w3.org/1999/xlink" x="0px" y="0px"
	 width="47.332px" height="46.174px" viewBox="0 0 47.332 46.174" enable-background="new 0 0 47.332 46.174" xml:space="preserve">
<path d="M28.86,23.087c0,7.97-6.46,14.431-14.43,14.431C6.461,37.518,0,31.057,0,23.087c0-7.969,6.461-14.43,14.43-14.43
	C22.4,8.658,28.86,15.119,28.86,23.087"/>
<path d="M24.244,0C18.394,0,13.055,2.18,8.987,5.767c2.752-1.47,5.894-2.306,9.231-2.306c10.84,0,19.627,8.787,19.627,19.627
	c0,10.838-8.787,19.625-19.627,19.625c-3.337,0-6.479-0.836-9.231-2.306c4.068,3.587,9.407,5.767,15.257,5.767
	c12.751,0,23.088-10.336,23.088-23.086C47.332,10.337,36.995,0,24.244,0"/>
</svg>
