<?xml version="1.0" encoding="utf-8"?>
<!-- Generator: Adobe Illustrator 15.0.0, SVG Export Plug-In . SVG Version: 6.00 Build 0)  -->
<!DOCTYPE svg PUBLIC "-//W3C//DTD SVG 1.1//EN" "http://www.w3.org/Graphics/SVG/1.1/DTD/svg11.dtd">
<svg version="1.1" id="Layer_1" xmlns="http://www.w3.org/2000/svg" xmlns:xlink="http://www.w3.org/1999/xlink" x="0px" y="0px"
	 width="45.193px" height="46.174px" viewBox="0 0 45.193 46.174" enable-background="new 0 0 45.193 46.174" xml:space="preserve">
<path d="M26.523,36.537h-0.034h-3.875H22.58h-3.876h-0.033c-1.207,0-2.388,0.459-3.393,1.321l-1.916,1.644v5.004
	c0,0,4.141,1.668,9.218,1.668c0.007,0,0.012,0,0.018,0c0.005,0,0.011,0,0.017,0c5.077,0,9.218-1.668,9.218-1.668v-5.004
	l-1.916-1.644C28.911,36.996,27.731,36.537,26.523,36.537"/>
<path d="M43.178,24.558c0,0,1.728-11.492,0.144-13.716c0.296-1.616,0.329-4.3-0.308-5.676c-0.908-0.503-4.161,1.108-5.846,1.942
	c-0.765-1.573-2.072-3.787-3.314-4.894c-1.645,0.034-4.865,1.812-6.574,2.73c-1.199-1.179-3.13-4.286-4.665-4.93V0
	c-0.006,0.002-0.011,0.005-0.017,0.007C22.592,0.005,22.587,0.002,22.58,0v0.014c-1.534,0.644-3.474,3.761-4.665,4.93
	c-1.71-0.918-4.93-2.696-6.573-2.73C10.1,3.321,8.791,5.535,8.026,7.108C6.342,6.274,3.089,4.663,2.182,5.166
	c-0.637,1.376-0.604,4.06-0.309,5.676c-1.585,2.224,0.145,13.716,0.145,13.716L0,26.781l2.545,4.584
	c0.514,0.926,6.748,3.985,9.527,5.315c0.552,0.265,1.17-0.209,1.061-0.812l-0.299-1.625c-0.2-1.092-0.062-2.219,0.394-3.229
	l2.212-4.903c0.283-0.992-0.215-2.067-1.027-2.22l-6.346-1.187v-3.486c0-0.807,0.76-1.399,1.543-1.2l8.986,2.276
	c0.737,0,1.26,0.929,1.027,1.831l-1.386,7.225c-0.328,1.276,0.411,2.589,1.454,2.589h5.812c1.043,0,1.78-1.312,1.453-2.589
	l-1.387-7.225c-0.23-0.902,0.291-1.831,1.029-1.831l8.986-2.276c0.781-0.199,1.543,0.393,1.543,1.2v3.486l-6.347,1.187
	c-0.812,0.152-1.31,1.228-1.026,2.22l2.214,4.897c0.459,1.015,0.597,2.147,0.394,3.242l-0.299,1.616
	c-0.111,0.603,0.507,1.078,1.06,0.812c2.78-1.33,9.013-4.389,9.526-5.314l2.543-4.584L43.178,24.558z"/>
</svg>
