<?xml version="1.0" encoding="utf-8"?>
<!-- Generator: Adobe Illustrator 15.0.0, SVG Export Plug-In . SVG Version: 6.00 Build 0)  -->
<!DOCTYPE svg PUBLIC "-//W3C//DTD SVG 1.1//EN" "http://www.w3.org/Graphics/SVG/1.1/DTD/svg11.dtd">
<svg version="1.1" id="Layer_1" xmlns="http://www.w3.org/2000/svg" xmlns:xlink="http://www.w3.org/1999/xlink" x="0px" y="0px"
	 width="19.453px" height="19.453px" viewBox="0 0 19.453 19.453" enable-background="new 0 0 19.453 19.453" xml:space="preserve">
<path d="M19.453,12.263c-2.466,0.564-5.215-0.069-7.189-1.69c2.82-0.917,5.005-3.243,6.133-5.921
	c-1.34,2.115-3.735,3.595-6.273,3.877C13.392,5.85,13.462,2.679,12.264,0c0.564,2.467-0.069,5.216-1.69,7.189
	C9.657,4.37,7.331,2.185,4.652,1.058C6.767,2.397,8.247,4.792,8.529,7.33C5.852,6.062,2.679,5.991,0.001,7.189
	C2.467,6.625,5.216,7.26,7.19,8.881C4.37,9.797,2.187,12.123,1.058,14.8c1.34-2.113,3.735-3.594,6.273-3.875
	c-1.269,2.678-1.34,5.85-0.141,8.527c-0.564-2.467,0.069-5.215,1.69-7.189c0.916,2.819,3.242,5.004,5.921,6.133
	c-2.114-1.34-3.595-3.736-3.877-6.273C13.604,13.392,16.775,13.462,19.453,12.263 M9.728,10.643
	c-0.212,0.846-0.07,1.762,0.423,2.467c-0.705-0.705-1.198-1.692-1.058-2.749c-0.141,0.141-0.281,0.212-0.494,0.352
	c-0.563,0.423-0.845,0.987-0.916,1.692c0-0.987,0.353-2.044,1.129-2.678C7.965,9.515,7.049,9.656,6.344,10.15
	c0.705-0.705,1.691-1.199,2.749-1.058C8.952,8.951,8.881,8.81,8.74,8.599C8.317,8.035,7.754,7.753,7.049,7.683
	c0.986,0,2.044,0.352,2.679,1.127c0.211-0.845,0.069-1.762-0.424-2.466c0.705,0.704,1.198,1.691,1.058,2.748
	c0.141-0.141,0.282-0.211,0.494-0.352c0.563-0.423,0.845-0.987,0.916-1.692c0,0.987-0.353,2.044-1.128,2.679
	c0.846,0.211,1.762,0.07,2.467-0.423c-0.705,0.705-1.691,1.198-2.749,1.057c0.141,0.141,0.212,0.282,0.353,0.492
	c0.423,0.564,0.986,0.847,1.691,0.918C11.419,11.771,10.361,11.417,9.728,10.643"/>
</svg>
