<?xml version="1.0" encoding="utf-8"?>
<!-- Generator: Adobe Illustrator 15.0.0, SVG Export Plug-In . SVG Version: 6.00 Build 0)  -->
<!DOCTYPE svg PUBLIC "-//W3C//DTD SVG 1.1//EN" "http://www.w3.org/Graphics/SVG/1.1/DTD/svg11.dtd">
<svg version="1.1" id="Layer_1" xmlns="http://www.w3.org/2000/svg" xmlns:xlink="http://www.w3.org/1999/xlink" x="0px" y="0px"
	 width="23.3px" height="46.149px" viewBox="0 0 23.3 46.149" enable-background="new 0 0 23.3 46.149" xml:space="preserve">
<path d="M12.697,46.149h-2.095V22.334c0-0.396,0.321-0.717,0.717-0.717h0.661c0.396,0,0.717,0.321,0.717,0.717V46.149z"/>
<path d="M11.741,13.308l1.15,7.487c0.007,0.045,0.046,0.078,0.091,0.078h1.848c0.056,0,0.099-0.05,0.091-0.105l-3.179-20.69
	c-0.016-0.104-0.166-0.104-0.182,0L8.38,20.768c-0.008,0.056,0.035,0.105,0.091,0.105h1.847c0.045,0,0.084-0.033,0.091-0.078
	l1.15-7.487C11.575,13.204,11.725,13.204,11.741,13.308"/>
<path d="M4.318,45.157H2.223V25.395c0-0.396,0.321-0.718,0.717-0.718h0.661c0.396,0,0.717,0.321,0.717,0.718V45.157z"/>
<path d="M3.362,16.368l1.15,7.487c0.007,0.045,0.046,0.078,0.091,0.078H6.45c0.056,0,0.099-0.05,0.091-0.105L3.362,3.137
	c-0.016-0.104-0.166-0.104-0.182,0l-3.179,20.69c-0.008,0.056,0.035,0.105,0.091,0.105h1.847c0.045,0,0.084-0.033,0.091-0.078
	l1.15-7.487C3.196,16.263,3.346,16.263,3.362,16.368"/>
<path d="M21.076,45.157h-2.095V25.395c0-0.396,0.32-0.718,0.717-0.718h0.661c0.396,0,0.717,0.321,0.717,0.718V45.157z"/>
<path d="M20.12,16.368l1.15,7.487c0.006,0.045,0.045,0.078,0.09,0.078h1.848c0.056,0,0.1-0.05,0.091-0.105L20.12,3.137
	c-0.016-0.104-0.166-0.104-0.182,0l-3.18,20.69c-0.008,0.056,0.035,0.105,0.092,0.105h1.846c0.045,0,0.084-0.033,0.092-0.078
	l1.15-7.487C19.954,16.263,20.104,16.263,20.12,16.368"/>
</svg>
