<?xml version="1.0" encoding="utf-8"?>
<!-- Generator: Adobe Illustrator 15.0.0, SVG Export Plug-In . SVG Version: 6.00 Build 0)  -->
<!DOCTYPE svg PUBLIC "-//W3C//DTD SVG 1.1//EN" "http://www.w3.org/Graphics/SVG/1.1/DTD/svg11.dtd">
<svg version="1.1" id="Layer_1" xmlns="http://www.w3.org/2000/svg" xmlns:xlink="http://www.w3.org/1999/xlink" x="0px" y="0px"
	 width="36.543px" height="46px" viewBox="0 0 36.543 46" enable-background="new 0 0 36.543 46" xml:space="preserve">
<path d="M4.896,18.536L0.007,35.011c-0.036,0.121,0.067,0.238,0.192,0.217l4.779-0.821c0.091-0.016,0.177,0.043,0.196,0.132
	l2.049,9.7c0.041,0.193,0.323,0.173,0.336-0.024l0.899-13.653c0.007-0.108-0.088-0.196-0.196-0.179l-4.327,0.675
	c-0.111,0.017-0.208-0.077-0.195-0.189l1.488-12.263C5.253,18.398,4.956,18.336,4.896,18.536"/>
<path d="M29.726,0.054L7.603,22.783c-0.106,0.109-0.029,0.292,0.123,0.292H20.22c0.127,0,0.21,0.133,0.154,0.247L9.322,45.75
	c-0.087,0.179,0.145,0.338,0.28,0.194l25.885-27.527c0.1-0.106,0.03-0.279-0.113-0.289l-13.589-0.911
	c-0.122-0.008-0.197-0.139-0.143-0.248l8.36-16.719C30.091,0.075,29.863-0.087,29.726,0.054"/>
<path d="M36.295,28.628L23.04,34.921c-0.116,0.056-0.133,0.215-0.03,0.293l2.877,2.198c0.094,0.073,0.089,0.218-0.012,0.281
	l-12.183,7.91c-0.177,0.114-0.031,0.386,0.162,0.302l18.701-8.134c0.125-0.056,0.14-0.226,0.025-0.302l-3.296-2.176
	c-0.096-0.062-0.104-0.201-0.016-0.274l7.211-6.105C36.635,28.784,36.478,28.542,36.295,28.628"/>
</svg>
