<?xml version="1.0" encoding="utf-8"?>
<!-- Generator: Adobe Illustrator 15.0.0, SVG Export Plug-In . SVG Version: 6.00 Build 0)  -->
<!DOCTYPE svg PUBLIC "-//W3C//DTD SVG 1.1//EN" "http://www.w3.org/Graphics/SVG/1.1/DTD/svg11.dtd">
<svg version="1.1" id="Layer_1" xmlns="http://www.w3.org/2000/svg" xmlns:xlink="http://www.w3.org/1999/xlink" x="0px" y="0px"
	 width="17.192px" height="17.191px" viewBox="0 0 17.192 17.191" enable-background="new 0 0 17.192 17.191" xml:space="preserve">
<path d="M11.621,3.722L8.742,2.861c-0.233-0.07-0.368-0.284-0.287-0.457l1.04-2.228c0.069-0.147,0.271-0.214,0.47-0.155l2.192,0.656
	c0.199,0.059,0.331,0.226,0.309,0.387l-0.354,2.433C12.083,3.687,11.855,3.792,11.621,3.722"/>
<path d="M7.289,3.01L4.644,4.438c-0.215,0.116-0.46,0.06-0.526-0.121l-0.84-2.31C3.223,1.854,3.318,1.664,3.5,1.565l2.015-1.088
	c0.183-0.098,0.394-0.074,0.49,0.057l1.472,1.97C7.59,2.657,7.503,2.895,7.289,3.01"/>
<path d="M3.722,5.57L2.861,8.45C2.792,8.684,2.578,8.817,2.404,8.736l-2.228-1.04C0.029,7.627-0.038,7.425,0.021,7.228l0.656-2.193
	c0.059-0.199,0.226-0.331,0.387-0.308L3.498,5.08C3.687,5.107,3.792,5.336,3.722,5.57"/>
<path d="M3.01,9.902l1.427,2.646c0.116,0.216,0.061,0.46-0.12,0.526l-2.311,0.84c-0.153,0.055-0.343-0.04-0.44-0.223l-1.089-2.014
	c-0.098-0.184-0.073-0.395,0.058-0.492l1.97-1.471C2.658,9.601,2.894,9.687,3.01,9.902"/>
<path d="M5.571,13.469l2.879,0.86c0.233,0.07,0.368,0.285,0.287,0.457l-1.04,2.229c-0.069,0.146-0.271,0.214-0.47,0.154
	l-2.192-0.655c-0.199-0.06-0.331-0.226-0.309-0.388l0.354-2.433C5.108,13.503,5.336,13.399,5.571,13.469"/>
<path d="M9.903,14.181l2.645-1.428c0.215-0.115,0.46-0.06,0.526,0.121l0.84,2.311c0.055,0.152-0.04,0.343-0.223,0.441l-2.015,1.088
	c-0.183,0.098-0.394,0.073-0.49-0.058l-1.472-1.97C9.601,14.534,9.688,14.296,9.903,14.181"/>
<path d="M13.469,11.621l0.861-2.879c0.069-0.234,0.283-0.368,0.457-0.287l2.228,1.04c0.147,0.069,0.214,0.271,0.155,0.47
	l-0.656,2.192c-0.059,0.199-0.226,0.331-0.387,0.308l-2.434-0.353C13.504,12.083,13.399,11.855,13.469,11.621"/>
<path d="M14.181,7.289l-1.427-2.645c-0.116-0.214-0.061-0.46,0.12-0.526l2.311-0.84c0.153-0.055,0.343,0.04,0.44,0.223l1.089,2.014
	c0.098,0.183,0.073,0.394-0.058,0.491l-1.97,1.471C14.534,7.591,14.297,7.503,14.181,7.289"/>
<path d="M9.914,4.188c-2.431-0.726-4.999,0.66-5.726,3.091c-0.727,2.43,0.66,4.999,3.09,5.725c2.431,0.727,4.999-0.66,5.726-3.09
	C13.73,7.482,12.343,4.915,9.914,4.188 M7.713,11.546c-1.63-0.486-2.556-2.203-2.068-3.833c0.486-1.629,2.203-2.556,3.833-2.068
	c1.63,0.487,2.556,2.203,2.068,3.832C11.06,11.107,9.343,12.033,7.713,11.546"/>
<path d="M10.457,2.371C7.019,1.343,3.399,3.297,2.371,6.735c-1.027,3.438,0.927,7.058,4.364,8.085
	c3.438,1.027,7.059-0.926,8.085-4.363C15.848,7.019,13.894,3.399,10.457,2.371 M7.034,13.82C4.153,12.958,2.51,9.916,3.371,7.034
	c0.862-2.88,3.906-4.523,6.786-3.662c2.882,0.861,4.524,3.905,3.663,6.785C12.959,13.039,9.916,14.681,7.034,13.82"/>
</svg>
