<?xml version="1.0" encoding="utf-8"?>
<!-- Generator: Adobe Illustrator 15.0.0, SVG Export Plug-In . SVG Version: 6.00 Build 0)  -->
<!DOCTYPE svg PUBLIC "-//W3C//DTD SVG 1.1//EN" "http://www.w3.org/Graphics/SVG/1.1/DTD/svg11.dtd">
<svg version="1.1" id="Layer_1" xmlns="http://www.w3.org/2000/svg" xmlns:xlink="http://www.w3.org/1999/xlink" x="0px" y="0px"
	 width="50.026px" height="26.271px" viewBox="0 0 50.026 26.271" enable-background="new 0 0 50.026 26.271" xml:space="preserve">
<path d="M1.237,11.721L34.53,2.235l4.483,15.73l-7.325-3.758l1.495,5.419l-7.349-3.809l1.52,5.47l-7.405-3.969l1.575,5.63
	l-7.367-3.804l1.538,5.465l-7.415-3.732l1.585,5.394l-7.37-3.745l-2.432-8.71C-0.188,12.914,0.335,11.979,1.237,11.721"/>
<path d="M49.814,9.53l-1.627-5.64c-0.397-1.378-1.309-2.521-2.569-3.215c-1.26-0.696-2.712-0.861-4.09-0.463l-5.05,1.456
	l1.368,4.854l5.08-1.465c0.031-0.009,0.062-0.013,0.092-0.012c0.065,0,0.122,0.021,0.162,0.044c0.057,0.03,0.131,0.091,0.162,0.197
	l1.627,5.641c0.029,0.106-0.001,0.197-0.032,0.254c-0.032,0.057-0.092,0.132-0.198,0.163l-5.117,1.475l1.369,4.854l5.146-1.484
	c1.377-0.396,2.519-1.31,3.215-2.569S50.211,10.908,49.814,9.53"/>
</svg>
