<?xml version="1.0" encoding="utf-8"?>
<!-- Generator: Adobe Illustrator 15.0.0, SVG Export Plug-In . SVG Version: 6.00 Build 0)  -->
<!DOCTYPE svg PUBLIC "-//W3C//DTD SVG 1.1//EN" "http://www.w3.org/Graphics/SVG/1.1/DTD/svg11.dtd">
<svg version="1.1" id="Layer_1" xmlns="http://www.w3.org/2000/svg" xmlns:xlink="http://www.w3.org/1999/xlink" x="0px" y="0px"
	 width="18.442px" height="15.926px" viewBox="0 0 18.442 15.926" enable-background="new 0 0 18.442 15.926" xml:space="preserve">
<path d="M5.326,15.927c0,0,1.448-0.871,2.028-2.029c0.58-1.16,0.399-1.703,0.399-1.703s1.05,0,1.213-1.087
	c0.526,0.435,1.305,0.562,1.848,0.235c0.453,0.326,1.853,0.299,2.319-0.49c0.526-0.887,0.224-1.357,0.127-1.575
	c0.309,0.091,0.544,0.036,0.888-0.109c0.345,0.2,1.718,0.728,2.826-0.054c0.489-0.344,0.924-0.906,0.924-1.594
	c0.544-0.761,0.092-3.026-1.014-3.442c0-0.471-1.468-1.649-2.283-1.631c-0.29-0.507-0.941-1.123-1.775-1.123
	c-0.67-0.725-1.902-1.069-3.007-0.906C8.986,0.001,8.207,0.22,7.717,0.409C6.902,0.202,6.286,0.365,5.87,0.528
	C4.782,0.69,4.167,1.053,3.913,1.542C2.607,2.068,1.666,3.045,1.63,4.187C0.906,4.84,0.688,5.545,0.833,6.071
	C0.235,6.633,0,7.575,0.579,8.057c-0.217,1.094,0.508,1.783,1.45,1.819c-1.902,1.304,1.63,3.769,3.785,3.623
	C5.851,13.952,5.761,15.202,5.326,15.927"/>
</svg>
