<?xml version="1.0" encoding="utf-8"?>
<!-- Generator: Adobe Illustrator 15.0.0, SVG Export Plug-In . SVG Version: 6.00 Build 0)  -->
<!DOCTYPE svg PUBLIC "-//W3C//DTD SVG 1.1//EN" "http://www.w3.org/Graphics/SVG/1.1/DTD/svg11.dtd">
<svg version="1.1" id="Layer_1" xmlns="http://www.w3.org/2000/svg" xmlns:xlink="http://www.w3.org/1999/xlink" x="0px" y="0px"
	 width="568.681px" height="568.695px" viewBox="0 0 568.681 568.695" enable-background="new 0 0 568.681 568.695"
	 xml:space="preserve">
<path fill="#151514" d="M564.388,273.966L294.722,4.299C291.948,1.527,288.262,0,284.34,0s-7.608,1.527-10.382,4.299L4.292,273.966
	c-5.723,5.724-5.723,15.04,0,20.763l269.666,269.666c2.774,2.772,6.46,4.3,10.382,4.3s7.608-1.527,10.382-4.3l269.666-269.666
	C570.111,289.005,570.111,279.69,564.388,273.966z M334.278,150.499l0.001,0.169c0,5.866-1.009,11.612-2.999,17.079
	c-1.109,3.045-3.985,4.936-7.049,4.936c-0.852,0-1.718-0.146-2.565-0.455c-3.892-1.417-5.898-5.721-4.481-9.613
	c1.39-3.817,2.095-7.836,2.095-11.947l-0.001-0.169c0-4.142,3.357-7.5,7.5-7.5S334.278,146.356,334.278,150.499z M298.938,110.103
	c2.062-3.592,6.648-4.832,10.238-2.769c5.057,2.904,9.533,6.637,13.306,11.097c2.675,3.163,2.279,7.895-0.884,10.57
	c-1.408,1.191-3.128,1.773-4.839,1.773c-2.131,0-4.247-0.903-5.73-2.657c-2.644-3.126-5.78-5.742-9.321-7.776
	C298.114,118.279,296.875,113.695,298.938,110.103z M310.257,289.812c-0.635,0.166-1.271,0.245-1.898,0.245
	c-3.331,0-6.372-2.235-7.252-5.608l-4.21-16.131c-1.046-4.008,1.355-8.105,5.363-9.151c4.007-1.048,8.105,1.355,9.15,5.363
	l4.21,16.132C316.666,284.669,314.265,288.766,310.257,289.812z M290.444,185.076c4.017-0.708,7.846-2.104,11.381-4.151
	c3.58-2.076,8.173-0.854,10.249,2.73c2.076,3.584,0.854,8.173-2.731,10.249c-5.061,2.932-10.544,4.932-16.297,5.944
	c-0.439,0.078-0.878,0.115-1.31,0.115c-3.572,0-6.736-2.561-7.378-6.201C283.641,189.683,286.365,185.794,290.444,185.076z
	 M259.25,107.48c5.055-2.942,10.534-4.953,16.286-5.977c4.071-0.727,7.972,1.991,8.698,6.069c0.726,4.078-1.991,7.972-6.069,8.698
	c-4.015,0.715-7.84,2.119-11.37,4.173c-1.187,0.691-2.485,1.02-3.766,1.02c-2.583,0-5.096-1.335-6.489-3.729
	C254.457,114.154,255.67,109.563,259.25,107.48z M263.158,194.955c-1.271,0-2.56-0.324-3.741-1.005
	c-5.05-2.913-9.52-6.655-13.284-11.123c-2.668-3.168-2.264-7.899,0.903-10.568c3.168-2.669,7.898-2.265,10.568,0.903
	c2.638,3.131,5.77,5.754,9.307,7.794c3.588,2.069,4.819,6.656,2.749,10.244C268.272,193.608,265.75,194.955,263.158,194.955z
	 M266.421,259.166c4.008,1.046,6.409,5.143,5.363,9.151l-4.21,16.131c-0.88,3.373-3.921,5.608-7.252,5.608
	c-0.627,0-1.264-0.079-1.899-0.245c-4.008-1.046-6.409-5.143-5.363-9.151l4.21-16.132
	C258.316,260.521,262.41,258.118,266.421,259.166z M234.4,150.667c0-5.83,0.998-11.544,2.964-16.985
	c1.409-3.895,5.708-5.912,9.604-4.503c3.895,1.409,5.911,5.708,4.503,9.604c-1.374,3.8-2.071,7.798-2.071,11.884
	c0,4.142-3.358,7.542-7.5,7.542s-7.5-3.316-7.5-7.458V150.667z M238.896,423.819c-1.048,3.142-3.974,5.129-7.114,5.129
	c-0.787,0-1.586-0.125-2.374-0.388c-4.755-1.586-7.493-2.748-7.606-2.797c-3.417-1.457-5.252-5.197-4.315-8.792l1.893-7.257
	c1.046-4.008,5.144-6.411,9.15-5.363c4.008,1.045,6.41,5.142,5.364,9.15l-0.178,0.683c0.144,0.049,0.29,0.098,0.438,0.147
	C238.083,415.641,240.207,419.889,238.896,423.819z M246.524,365.106l-4.21,16.132c-0.88,3.373-3.921,5.608-7.252,5.608
	c-0.627,0-1.264-0.079-1.899-0.245c-4.008-1.046-6.409-5.143-5.363-9.15l4.21-16.132c1.045-4.008,5.141-6.411,9.151-5.363
	C245.169,357.001,247.57,361.098,246.524,365.106z M245.793,338.206c-4.008-1.046-6.409-5.143-5.363-9.15l4.21-16.131
	c1.046-4.008,5.142-6.41,9.151-5.363c4.008,1.046,6.409,5.143,5.363,9.15l-4.21,16.131c-0.88,3.373-3.921,5.608-7.252,5.608
	C247.065,338.451,246.429,338.372,245.793,338.206z M278.667,430.721c-0.412,3.847-3.665,6.702-7.448,6.702
	c-0.267,0-0.536-0.015-0.808-0.044c-4.594-0.491-9.252-1.156-13.844-1.976c-4.078-0.729-6.793-4.624-6.065-8.701
	c0.728-4.079,4.625-6.788,8.701-6.066c4.249,0.759,8.557,1.374,12.805,1.829C276.126,422.906,279.108,426.602,278.667,430.721z
	 M288.477,236.054l-0.431-1.651h-1.706c-0.693,0-1.362-0.102-2-0.278c-0.637,0.176-1.306,0.278-2,0.278h-1.706l-0.431,1.651
	c-0.88,3.373-3.921,5.608-7.252,5.608c-0.627,0-1.264-0.079-1.899-0.245c-4.008-1.046-6.409-5.143-5.363-9.151l1.894-7.257
	c0.862-3.302,3.844-5.606,7.257-5.606h7.5c0.694,0,1.362,0.102,2,0.278c0.638-0.176,1.307-0.278,2-0.278h7.5
	c3.413,0,6.396,2.304,7.257,5.606l1.894,7.257c1.046,4.008-1.355,8.105-5.363,9.15c-0.635,0.166-1.272,0.245-1.898,0.245
	C292.397,241.662,289.356,239.427,288.477,236.054z M312.545,436.982c-4.516,0.641-9.262,1.079-14.106,1.303
	c-0.117,0.005-0.235,0.008-0.352,0.008c-3.983,0-7.301-3.134-7.486-7.154c-0.191-4.138,3.009-7.646,7.146-7.838
	c4.372-0.202,8.643-0.596,12.69-1.17c4.104-0.583,7.897,2.271,8.479,6.372C319.499,432.604,316.646,436.4,312.545,436.982z
	 M313.736,332.844l-4.21-16.132c-1.046-4.008,1.355-8.104,5.363-9.15c4.01-1.048,8.104,1.355,9.15,5.363l4.21,16.132
	c1.046,4.008-1.355,8.104-5.363,9.15c-0.635,0.166-1.271,0.245-1.898,0.245C317.657,338.453,314.616,336.217,313.736,332.844z
	 M326.365,381.239l-4.21-16.132c-1.046-4.008,1.355-8.104,5.363-9.15c4.007-1.049,8.105,1.355,9.15,5.363l4.21,16.132
	c1.046,4.008-1.355,8.104-5.363,9.15c-0.635,0.166-1.271,0.245-1.898,0.245C330.286,386.847,327.245,384.612,326.365,381.239z
	 M348.444,424.858c-0.462,0.348-3.016,2.193-7.973,4.443c-1.005,0.456-2.058,0.672-3.094,0.672c-2.853,0-5.579-1.636-6.835-4.403
	c-1.711-3.771-0.041-8.217,3.731-9.929c0.334-0.151,0.651-0.3,0.953-0.443l-0.442-1.696c-1.046-4.008,1.355-8.104,5.363-9.15
	c4.009-1.047,8.104,1.355,9.15,5.363l1.894,7.257C351.961,419.915,350.875,423.03,348.444,424.858z"/>
</svg>
