<?xml version="1.0" encoding="utf-8"?>
<!-- Generator: Adobe Illustrator 15.0.0, SVG Export Plug-In . SVG Version: 6.00 Build 0)  -->
<!DOCTYPE svg PUBLIC "-//W3C//DTD SVG 1.1//EN" "http://www.w3.org/Graphics/SVG/1.1/DTD/svg11.dtd">
<svg version="1.1" id="Layer_1" xmlns="http://www.w3.org/2000/svg" xmlns:xlink="http://www.w3.org/1999/xlink" x="0px" y="0px"
	 width="568.68px" height="568.695px" viewBox="0 0 568.68 568.695" enable-background="new 0 0 568.68 568.695"
	 xml:space="preserve">
<path d="M564.388,273.966L294.722,4.299C291.947,1.527,288.262,0,284.34,0s-7.608,1.527-10.382,4.299L4.292,273.966
	c-5.723,5.724-5.723,15.04,0,20.763l269.666,269.666c2.774,2.772,6.46,4.3,10.382,4.3s7.607-1.527,10.382-4.3l269.666-269.666
	C570.11,289.005,570.11,279.69,564.388,273.966z M409.797,390.35c0,0-24.844,6.475-64.496-12.496
	c-26.241,11.928-50.147,16.526-77.02,11.928c-18.58-3.179-36.426-8.892-54.627-13.901c-27.542-7.582-52.712-13.072-55.79-17.792
	c-5.112-7.839-17.338-49.254,3.749-99.852c12.279-29.462,23.541-52.356,25.219-64.41c0.594-4.27,1.363-36.465,48.734-53.164
	c47.37-16.7,78.381-10.906,86.22,4.089c7.838,14.995,6.803,51.618-2.045,50.779c-13.879-1.318-27.564,5.378-40.981,4.014
	c-13.418-1.363-28.881-10.781-32.971-8.25c-4.09,2.532-7.441,17.951-9.542,28.926c-3.093,16.16,10.907,40.818,11.928,59.985
	c6.475-5.612,25.697-15.344,49.074-16.176c21.185-0.753,29.309,4.43,44.644,19.766c5.112-4.168,29.685-22.119,71.261-20.415
	c0.246,27.107,6.013,47.622,6.013,77.46C419.166,387.04,409.797,390.35,409.797,390.35z"/>
</svg>
