<?xml version="1.0" encoding="utf-8"?>
<!-- Generator: Adobe Illustrator 15.0.0, SVG Export Plug-In . SVG Version: 6.00 Build 0)  -->
<!DOCTYPE svg PUBLIC "-//W3C//DTD SVG 1.1//EN" "http://www.w3.org/Graphics/SVG/1.1/DTD/svg11.dtd">
<svg version="1.1" id="Layer_1" xmlns="http://www.w3.org/2000/svg" xmlns:xlink="http://www.w3.org/1999/xlink" x="0px" y="0px"
	 width="568.681px" height="568.695px" viewBox="0 0 568.681 568.695" enable-background="new 0 0 568.681 568.695"
	 xml:space="preserve">
<path d="M564.388,273.966L294.722,4.299C291.948,1.527,288.262,0,284.34,0s-7.608,1.527-10.382,4.299L4.292,273.966
	c-5.723,5.724-5.723,15.04,0,20.763l269.666,269.666c2.774,2.772,6.46,4.3,10.382,4.3s7.608-1.527,10.382-4.3l269.666-269.666
	C570.111,289.005,570.111,279.69,564.388,273.966z M269.305,196.141V147.76l23.081,45.275l36.397-94.987v118.068l42.61-32.847
	l-26.632,46.162h26.632l-30.093,23.392c-1.473,1.145-3.618,0.715-4.521-0.917c-3.556-6.411-12.772-20.841-26.454-26.704
	c-18.044-7.733-32.738-0.357-38.452,3.368c-1.445,0.941-3.387,0.466-4.262-1.022l-23.939-40.728L269.305,196.141z M371.394,387.625
	l-42.61-32.846v118.068l-36.397-94.987l-23.081,45.274v-48.382l-25.633,9.321l23.939-40.728c0.875-1.487,2.817-1.963,4.262-1.021
	c5.714,3.725,20.408,11.101,38.452,3.367c13.682-5.863,22.898-20.293,26.454-26.704c0.903-1.632,3.049-2.062,4.521-0.917
	l30.093,23.392h-26.632L371.394,387.625z M430.915,314.347l-18.052-18.182H65.561l-7.221-11.818l7.221-11.818h347.302l18.052-18.182
	l79.425,30L430.915,314.347z"/>
</svg>
