<?xml version="1.0" encoding="utf-8"?>
<!-- Generator: Adobe Illustrator 15.0.0, SVG Export Plug-In . SVG Version: 6.00 Build 0)  -->
<!DOCTYPE svg PUBLIC "-//W3C//DTD SVG 1.1//EN" "http://www.w3.org/Graphics/SVG/1.1/DTD/svg11.dtd">
<svg version="1.1" id="Layer_1" xmlns="http://www.w3.org/2000/svg" xmlns:xlink="http://www.w3.org/1999/xlink" x="0px" y="0px"
	 width="568.688px" height="568.695px" viewBox="0 0 568.688 568.695" enable-background="new 0 0 568.688 568.695"
	 xml:space="preserve">
<path d="M564.389,273.966L294.723,4.299C291.949,1.527,288.263,0,284.341,0c-3.921,0-7.608,1.527-10.381,4.299L4.293,273.966
	c-5.724,5.725-5.724,15.04,0,20.763L273.96,564.395c2.773,2.772,6.46,4.3,10.381,4.3c3.922,0,7.608-1.527,10.382-4.3
	l269.666-269.666c2.772-2.773,4.3-6.46,4.3-10.382C568.688,280.426,567.161,276.739,564.389,273.966z M424.514,371.755
	c-6.87,10.884-20.229,15.176-31.868,11.032c-27.129,29.587-66.078,48.169-109.289,48.169c-41.837,0-79.677-17.42-106.665-45.382
	c-11.528,4.444-24.996,0.5-32.146-10.204c-7.135-10.684-5.638-24.604,2.84-33.552c-7.92-18.133-12.325-38.14-12.325-59.158
	c0-72.792,52.718-133.5,121.979-145.956c2.742-12.006,13.479-20.967,26.316-20.967c12.838,0,23.575,8.961,26.317,20.967
	c69.261,12.455,121.978,73.164,121.978,145.955c0,19.665-3.856,38.443-10.838,55.631
	C429.517,347.018,431.37,360.892,424.514,371.755z"/>
<g>
	<path d="M247.543,263.741l28.44-49.261c-34.362,3.69-61.21,32.855-61.21,68.181c0,9.851,2.104,19.214,5.859,27.69L247.543,263.741z
		"/>
	<path d="M283.356,325.772h-53.287c12.584,15.524,31.792,25.473,53.287,25.473s40.703-9.948,53.287-25.473H283.356z"/>
	<path d="M308.431,152.76c-3.979,9.951-13.703,16.983-25.074,16.983c-11.372,0-21.094-7.033-25.074-16.983
		c-60.998,11.75-107.221,65.525-107.221,129.901c0,18.179,3.688,35.513,10.351,51.294c10.483-2.214,21.729,1.965,28.044,11.42
		c6.301,9.435,5.87,21.394-0.155,30.224c23.999,24.284,57.297,39.357,94.055,39.357c37.982,0,72.272-16.096,96.423-41.817
		c-6.25-8.672-6.99-20.615-0.935-30.209c6.069-9.615,17.204-14.084,27.742-12.14c5.849-14.924,9.064-31.157,9.064-48.129
		C415.651,218.285,369.429,164.511,308.431,152.76z M283.356,367.245c-46.639,0-84.583-37.944-84.583-84.583
		s37.944-84.583,84.583-84.583c46.64,0,84.583,37.944,84.583,84.583S329.996,367.245,283.356,367.245z"/>
	<path d="M290.729,214.48l28.439,49.261l26.911,46.61c3.756-8.476,5.859-17.839,5.859-27.69
		C351.939,247.335,325.091,218.17,290.729,214.48z"/>
</g>
</svg>
