<?xml version="1.0" encoding="utf-8"?>
<!-- Generator: Adobe Illustrator 15.0.0, SVG Export Plug-In . SVG Version: 6.00 Build 0)  -->
<!DOCTYPE svg PUBLIC "-//W3C//DTD SVG 1.1//EN" "http://www.w3.org/Graphics/SVG/1.1/DTD/svg11.dtd">
<svg version="1.1" id="Layer_1" xmlns="http://www.w3.org/2000/svg" xmlns:xlink="http://www.w3.org/1999/xlink" x="0px" y="0px"
	 width="568.68px" height="568.695px" viewBox="0 0 568.68 568.695" enable-background="new 0 0 568.68 568.695"
	 xml:space="preserve">
<path d="M340.222,241.549l15.981-36.866l-39.949,15.949l-34.614-49.426l-32.865,57.025l-44.961,3.278l23.419,45.859l-38.906,39.471
	l51.988,9.852l5.434,52.191l31.349-25.729l33.298,28.979l10.149-48.354l46.982-0.413l-21.222-43.457l39.938-27.027L340.222,241.549z
	 M331.435,310.286l-25.67,0.226l-5.548,26.422L282.024,321.1l-17.13,14.061l-2.968-28.52l-28.407-5.382l21.259-21.567
	l-12.796-25.058l24.567-1.791l17.957-31.158l18.915,27.007l21.828-8.715l-8.732,20.144l25.146,11.654l-21.822,14.767
	L331.435,310.286z"/>
<path d="M564.387,273.966L294.722,4.299C291.948,1.527,288.262,0,284.34,0c-3.922,0-7.608,1.527-10.382,4.299L4.292,273.966
	c-5.723,5.724-5.723,15.04,0,20.763l269.666,269.666c2.774,2.772,6.46,4.301,10.382,4.301c3.922,0,7.608-1.527,10.382-4.301
	l269.665-269.666C570.112,289.005,570.112,279.69,564.387,273.966z M415.024,369.762l-82.031-11.769l-0.697,76.617l-50.263-45.255
	l-62.198,51.543l-2.576-87.396l-104.32-16.577l81.219-66.757l-52.798-66.207l90.718,1.146l39.277-93.043l55.461,72.343
	l81.721-22.496l-31.925,63.472l79.528,34.269l-74.182,37.024L415.024,369.762z"/>
</svg>
