<?xml version="1.0" encoding="utf-8"?>
<!-- Generator: Adobe Illustrator 15.0.0, SVG Export Plug-In . SVG Version: 6.00 Build 0)  -->
<!DOCTYPE svg PUBLIC "-//W3C//DTD SVG 1.1//EN" "http://www.w3.org/Graphics/SVG/1.1/DTD/svg11.dtd">
<svg version="1.1" id="Layer_1" xmlns="http://www.w3.org/2000/svg" xmlns:xlink="http://www.w3.org/1999/xlink" x="0px" y="0px"
	 width="568.681px" height="568.695px" viewBox="0 0 568.681 568.695" enable-background="new 0 0 568.681 568.695"
	 xml:space="preserve">
<path d="M564.388,273.966L294.722,4.299C291.948,1.527,288.262,0,284.34,0c-3.921,0-7.608,1.527-10.381,4.299L4.292,273.966
	c-5.723,5.724-5.723,15.04,0,20.763l269.667,269.666c2.773,2.772,6.46,4.3,10.381,4.3c3.922,0,7.608-1.527,10.382-4.3
	l269.666-269.666C570.111,289.005,570.111,279.69,564.388,273.966z M100.384,322.95c-2.684,2.75-6.356,4.303-10.199,4.303H79.677
	c-3.497,0-5.528-3.951-3.485-6.79c5.244-7.284,12.228-20.01,12.228-36.115s-6.984-28.831-12.228-36.116
	c-2.043-2.838-0.012-6.79,3.485-6.79h10.508c3.843,0,7.515,1.553,10.199,4.303c5.712,5.853,14.218,18.024,14.218,38.603
	C114.602,304.926,106.096,317.097,100.384,322.95z M204.432,322.95c-2.684,2.75-6.357,4.303-10.2,4.303H144.5
	c-3.498,0-5.528-3.951-3.485-6.79c5.243-7.284,12.228-20.01,12.228-36.115s-6.985-28.831-12.228-36.116
	c-2.043-2.838-0.013-6.79,3.485-6.79h49.732c3.843,0,7.516,1.553,10.2,4.303c5.711,5.853,14.217,18.024,14.217,38.603
	C218.649,304.926,210.143,317.097,204.432,322.95z M491.294,288.258l-129.023,92.403c-2.637,1.889-6.304,0.004-6.304-3.238v-50.171
	H241.861c-3.497,0-5.528-3.951-3.484-6.79c5.243-7.284,12.227-20.01,12.227-36.115s-6.984-28.831-12.227-36.116
	c-2.044-2.838-0.013-6.79,3.484-6.79h114.106v-50.171c0-3.242,3.667-5.127,6.304-3.238l129.023,92.403
	C493.973,282.354,493.973,286.339,491.294,288.258z"/>
</svg>
