<?xml version="1.0" encoding="utf-8"?>
<!-- Generator: Adobe Illustrator 15.0.0, SVG Export Plug-In . SVG Version: 6.00 Build 0)  -->
<!DOCTYPE svg PUBLIC "-//W3C//DTD SVG 1.1//EN" "http://www.w3.org/Graphics/SVG/1.1/DTD/svg11.dtd">
<svg version="1.1" id="Layer_1" xmlns="http://www.w3.org/2000/svg" xmlns:xlink="http://www.w3.org/1999/xlink" x="0px" y="0px"
	 width="568.696px" height="568.696px" viewBox="0 0 568.696 568.696" enable-background="new 0 0 568.696 568.696"
	 xml:space="preserve">
<path d="M564.396,273.967L294.73,4.3c-2.773-2.772-6.46-4.3-10.382-4.3s-7.608,1.528-10.382,4.3L4.3,273.967
	c-2.772,2.773-4.3,6.46-4.3,10.381c0,3.922,1.528,7.609,4.3,10.382l269.666,269.666c2.774,2.772,6.46,4.3,10.382,4.3
	s7.608-1.527,10.382-4.3l85.275-85.275c-6.199-9.271-18.487-26.637-25.306-29.378c-10.981,1.747-29.595-4.968-45.403-11.212
	c-25.195-9.95-45.622-37.691-52.373-42.639s-13.216-9.661-45.495-21.374c-32.28-11.712-35.192-22.506-29.544-34.945
	c4.04-8.9,33.034,1.808,44.974,6.628c11.941,4.82,32.17,12.154,33.92,6.959c2.807-8.332-34.974-31.102-42.276-35.716
	c-7.303-4.614-34.536-18.178-34.854-31.15c-0.317-12.973,12.151-15.994,16.238-15.455c4.087,0.539,33.757,21.236,48.27,29.767
	c14.515,8.529,30.115,20.236,33.312,13.345c3.45-7.436-21.18-28.199-32.208-41.47c-11.029-13.27-35.575-33.091-40.089-46.161
	c-4.513-13.07,12.024-21.184,18.379-19.382c6.354,1.802,26.227,23.942,29.718,27.851c3.491,3.908,27.248,30.679,37.168,42.739
	c9.921,12.059,11.009,8.764,13.931,7.374c2.921-1.39,5.461-3.295,4.398-7.543s-12.972-33.912-15.309-39.647
	c-2.337-5.734-26.46-51.95-7.619-59.604c17.799-7.231,23.833,16.425,28.886,25.408c5.052,8.983,30.17,71.014,34.185,75.537
	c8.255,9.304,13.067,18.006,24.199,11.655c7.107-4.054,9.21-10.571,11.62-16.541c2.41-5.97,6.638-30.717,19.478-38.1
	c12.841-7.384,25.067,1.024,25.465,4.17c0.396,3.146-11.809,57.146-13.335,63.334c-1.526,6.188,9.468,34.607,9.739,50.617
	s-3.497,37.54-3.051,39.526c0.25,1.107,8.954,12.188,16.609,21.778L564.396,294.73c2.772-2.773,4.3-6.46,4.3-10.382
	C568.696,280.427,567.168,276.74,564.396,273.967z M153.423,319.95l-35.239-6.117c-1.411-0.245-2.689-1.019-2.537-1.537l2.224-7.64
	c0.151-0.519,1.644-0.485,2.966,0.065l33.015,13.757C155.783,319.284,155.485,320.307,153.423,319.95z M205.187,390.507
	c2.173-0.375,2.637,1.034,0.667,2.024l-33.681,16.919c-1.349,0.678-2.954,0.641-3.189-0.072l-3.462-10.515
	c-0.235-0.713,1.034-1.696,2.522-1.952L205.187,390.507z M181.582,238.918l-43.544-24.704c-1.744-0.99-3.025-2.652-2.546-3.302
	l7.067-9.585c0.479-0.65,2.445,0.082,3.907,1.456l36.477,34.289C185.077,239.079,184.13,240.364,181.582,238.918z M247.077,173.75
	l-24.907-30.124c-0.998-1.206-1.306-2.848-0.612-3.262l10.226-6.102c0.694-0.414,1.993,0.637,2.581,2.088l14.682,36.225
	C249.906,174.696,248.535,175.514,247.077,173.75z M318.717,121.282l-9.429,31.857c-0.552,1.865-1.954,1.684-2.015-0.26
	l-1.03-33.207c-0.041-1.33,0.636-2.585,1.346-2.494l10.46,1.351C318.758,118.62,319.095,120.006,318.717,121.282z M394.428,154.586
	l-27.074,68.728c-1.584,4.022-3.811,3.433-3.198-0.847l10.47-73.122c0.42-2.929,1.986-5.594,3.113-5.296l16.604,4.394
	C395.47,148.742,395.512,151.834,394.428,154.586z"/>
</svg>
