<?xml version="1.0" encoding="utf-8"?>
<!-- Generator: Adobe Illustrator 15.0.0, SVG Export Plug-In . SVG Version: 6.00 Build 0)  -->
<!DOCTYPE svg PUBLIC "-//W3C//DTD SVG 1.1//EN" "http://www.w3.org/Graphics/SVG/1.1/DTD/svg11.dtd">
<svg version="1.1" id="Layer_1" xmlns="http://www.w3.org/2000/svg" xmlns:xlink="http://www.w3.org/1999/xlink" x="0px" y="0px"
	 width="568.696px" height="568.696px" viewBox="0 0 568.696 568.696" enable-background="new 0 0 568.696 568.696"
	 xml:space="preserve">
<path d="M564.396,273.967L294.73,4.3c-2.774-2.772-6.46-4.3-10.382-4.3s-7.608,1.528-10.382,4.3L4.3,273.967
	c-2.772,2.773-4.3,6.46-4.3,10.381c0,3.922,1.528,7.609,4.3,10.382l269.666,269.666c2.774,2.772,6.46,4.3,10.382,4.3
	s7.607-1.527,10.382-4.3L564.396,294.73c2.772-2.773,4.3-6.46,4.3-10.382C568.696,280.427,567.168,276.74,564.396,273.967z
	 M287.707,464.417c-43.515,0-78.792-35.276-78.792-78.791c0-31.15,13.56-49.107,40.313-86.121
	c20.452-28.297,32.123-57.666,36.485-69.928c0.667-1.876,3.32-1.876,3.987,0c4.362,12.262,16.033,41.631,36.485,69.928
	c26.753,37.014,40.312,54.971,40.312,86.121C366.499,429.141,331.222,464.417,287.707,464.417z M382.121,260.484
	c-4.746,13.862-7.688,26.985-5.887,35.094c7.244,32.604-9.572,38.938-9.749,39.278c-6.752-12.146-15.935-24.833-27.319-40.592
	l-1.97-2.717c-19.603-27.128-30.796-55.562-34.695-66.523c-2.229-6.236-8.164-10.434-14.793-10.434
	c-6.63,0-12.566,4.198-14.794,10.434c-3.899,10.962-15.093,39.395-34.695,66.523l-1.97,2.717
	c-16.017,22.158-27.672,38.282-34.342,55.304c-8.256-4.829-17.936-14.95-19.255-31.575c-1.172-14.781,2.86-34.739,16.982-58.415
	c15.395-25.81,12.225-54.338-11.547-72.904c16.302-8.604,31.294,2.975,36.225,11.321c8.83,14.943,20.497,13.955,26.491,6.339
	c10.867-13.811-7.33-27.542-9.455-49.022c-1.405-14.192,3.622-38.037,27.66-51.033c-8.243,26.245,4.233,44.58,21.417,52.282
	c13.132,5.887,34.686-8.114,28.98-18.113c26.178,15.229,20.591,38.708,17.94,48.108c-3.087,10.953-6.764,27.336,2.284,33.992
	c9.047,6.657,27.041,2.701,29.359-18.252C368.989,202.296,396.384,218.824,382.121,260.484z"/>
</svg>
