<?xml version="1.0" encoding="utf-8"?>
<!-- Generator: Adobe Illustrator 15.0.0, SVG Export Plug-In . SVG Version: 6.00 Build 0)  -->
<!DOCTYPE svg PUBLIC "-//W3C//DTD SVG 1.1//EN" "http://www.w3.org/Graphics/SVG/1.1/DTD/svg11.dtd">
<svg version="1.1" id="Layer_1" xmlns="http://www.w3.org/2000/svg" xmlns:xlink="http://www.w3.org/1999/xlink" x="0px" y="0px"
	 width="568.681px" height="568.695px" viewBox="0 0 568.681 568.695" enable-background="new 0 0 568.681 568.695"
	 xml:space="preserve">
<path d="M564.388,273.966L294.722,4.299C291.948,1.527,288.262,0,284.34,0s-7.608,1.527-10.382,4.299L4.292,273.966
	c-5.723,5.724-5.723,15.04,0,20.763l269.666,269.666c2.774,2.772,6.46,4.3,10.382,4.3s7.608-1.527,10.382-4.3l269.666-269.666
	C570.111,289.005,570.111,279.69,564.388,273.966z M255.513,267.483v115.903c0,13.768-11.161,24.928-24.929,24.928h-80.697V264.186
	c0-33.716,2.344-69.921,33.23-91.785h18.51c3.308,0,7.01-0.168,11.299-0.361c5.119-0.232,10.921-0.493,17.044-0.493
	c28.452,0.001,59.865,5.52,75.743,39.036C263.696,217.61,255.513,246.455,255.513,267.483z M434.166,365.5l-4.426,3.831
	l-47.911,41.484l-47.911-41.484l-5.39-4.671l-42.522-36.838h42.522V262.48c0-95.267-56.225-105.821-96.059-105.823
	c-11.333,0-21.334,0.855-28.343,0.855c22.827-9.286,56.405-10.634,83.122-10.634c10.913,0,20.676,0.226,28.103,0.226
	c113.104,0,118.814,59.135,118.814,112.088v68.629h43.485L434.166,365.5z"/>
</svg>
