<?xml version="1.0" encoding="utf-8"?>
<!-- Generator: Adobe Illustrator 15.0.0, SVG Export Plug-In . SVG Version: 6.00 Build 0)  -->
<!DOCTYPE svg PUBLIC "-//W3C//DTD SVG 1.1//EN" "http://www.w3.org/Graphics/SVG/1.1/DTD/svg11.dtd">
<svg version="1.1" id="Layer_1" xmlns="http://www.w3.org/2000/svg" xmlns:xlink="http://www.w3.org/1999/xlink" x="0px" y="0px"
	 width="568.69px" height="509.42px" viewBox="0 0 568.69 509.42" enable-background="new 0 0 568.69 509.42" xml:space="preserve">
<path d="M564.389,214.691L349.697,0l-45.973,130.212c-1.505,4.264,2.298,8.506,6.7,7.474l71.009-16.647
	c4.323-1.013,8.104,3.071,6.758,7.303l-94.394,296.981c-1.926,6.059-10.816,4.928-11.164-1.42l-10.976-200.27
	c-0.207-3.791-3.984-6.332-7.574-5.096l-53.345,18.357c-3.325,1.144-6.885-0.953-7.495-4.415L164.511,54.473L4.293,214.691
	c-5.724,5.724-5.724,15.04-0.001,20.763l269.667,269.666c2.774,2.772,6.46,4.3,10.382,4.3c3.921,0,7.607-1.527,10.381-4.3
	l269.667-269.666c2.772-2.773,4.301-6.46,4.301-10.382C568.69,221.151,567.162,217.464,564.389,214.691z"/>
</svg>
