<?xml version="1.0" encoding="utf-8"?>
<!-- Generator: Adobe Illustrator 15.0.0, SVG Export Plug-In . SVG Version: 6.00 Build 0)  -->
<!DOCTYPE svg PUBLIC "-//W3C//DTD SVG 1.1//EN" "http://www.w3.org/Graphics/SVG/1.1/DTD/svg11.dtd">
<svg version="1.1" id="Layer_1" xmlns="http://www.w3.org/2000/svg" xmlns:xlink="http://www.w3.org/1999/xlink" x="0px" y="0px"
	 width="568.696px" height="568.696px" viewBox="0 0 568.696 568.696" enable-background="new 0 0 568.696 568.696"
	 xml:space="preserve">
<path d="M564.396,273.967L294.73,4.3c-2.773-2.772-6.46-4.3-10.382-4.3s-7.608,1.528-10.382,4.3L4.3,273.967
	c-2.772,2.773-4.3,6.46-4.3,10.381c0,3.922,1.528,7.609,4.3,10.382l269.666,269.666c2.774,2.772,6.46,4.3,10.382,4.3
	s7.608-1.527,10.382-4.3L564.396,294.73c2.772-2.773,4.3-6.46,4.3-10.382C568.696,280.427,567.168,276.74,564.396,273.967z
	 M187.142,167.134l40.632,56.605l-7.902,31.237l-40.633-56.605L187.142,167.134z M119.82,215.034l32.543,1.495l41.908,55.667
	l-32.543-1.496L119.82,215.034z M402.222,397.867c-7.19,8.99-52.743,22.175-60.533,22.175c-1.8-2.995-7.789-12.585-10.789-12.585
	c-2.995,0-30.564-1.8-41.954,0.6c-1.795,5.396-1.795,8.39-1.795,8.39s-54.537,5.995-99.49-37.758
	c0.6-25.771,11.989-33.563,11.989-33.563l17.379,3.6c0,0,12.611-6.304,37.827-8.369L154.173,199.552
	c-1.606-2.246-1.087-5.369,1.159-6.976c2.247-1.606,5.369-1.087,6.976,1.159l104.415,146.022c2.522-0.053,5.13-0.065,7.844-0.023
	c2.132-4.691,16.407-23.949,24.46-38.775c0.367-0.669,0.719-1.334,1.056-1.982c1.885-3.645,3.307-6.937,4.007-9.59
	c0.184-0.709,0.312-1.373,0.377-1.983c0.045-0.356,0.064-0.694,0.064-1.012c0-1.518-0.288-4.447-0.788-8.404
	c-0.045-0.387-0.1-0.778-0.149-1.185c-0.356-2.792-0.798-6.03-1.313-9.59c-0.129-0.907-0.268-1.835-0.407-2.781
	c-0.44-2.975-0.922-6.134-1.418-9.416c-0.114-0.724-0.223-1.453-0.337-2.187c-0.476-3.114-0.981-6.327-1.482-9.59
	c-0.095-0.59-0.188-1.185-0.278-1.78c-0.49-3.119-0.986-6.277-1.482-9.421c-0.108-0.664-0.213-1.324-0.317-1.983
	c-0.5-3.238-0.991-6.446-1.482-9.59c-0.104-0.664-0.203-1.324-0.308-1.984c-3.01-19.456-5.364-35.63-4.621-36.375
	c1.8-1.794,23.975,2.4,43.153-4.789c19.18-7.195,38.358-11.39,71.317-0.6c0,0,15.584,25.169-16.779,112.071
	C394.432,319.355,405.817,386.477,402.222,397.867z"/>
</svg>
