<?xml version="1.0" encoding="utf-8"?>
<!-- Generator: Adobe Illustrator 15.0.0, SVG Export Plug-In . SVG Version: 6.00 Build 0)  -->
<!DOCTYPE svg PUBLIC "-//W3C//DTD SVG 1.1//EN" "http://www.w3.org/Graphics/SVG/1.1/DTD/svg11.dtd">
<svg version="1.1" id="Layer_1" xmlns="http://www.w3.org/2000/svg" xmlns:xlink="http://www.w3.org/1999/xlink" x="0px" y="0px"
	 width="568.681px" height="568.695px" viewBox="0 0 568.681 568.695" enable-background="new 0 0 568.681 568.695"
	 xml:space="preserve">
<path d="M4.292,294.729l269.666,269.667c2.773,2.772,6.46,4.299,10.381,4.299c3.921,0,7.608-1.526,10.381-4.299l269.668-269.667
	c5.723-5.724,5.723-15.04,0-20.763L294.722,4.3c-2.773-2.772-6.46-4.3-10.381-4.3c-3.922,0-7.609,1.527-10.382,4.3L4.292,273.966
	C-1.431,279.689-1.431,289.005,4.292,294.729z M468.297,245.745c2.684-2.75,6.356-4.303,10.199-4.303h10.508
	c3.497,0,5.528,3.951,3.485,6.79c-5.244,7.284-12.229,20.01-12.229,36.116c0,16.105,6.984,28.83,12.228,36.115
	c2.043,2.838,0.012,6.79-3.484,6.79h-10.508c-3.844,0-7.516-1.553-10.199-4.303c-5.713-5.854-14.219-18.024-14.219-38.603
	C454.079,263.769,462.585,251.598,468.297,245.745z M364.248,245.745c2.684-2.75,6.357-4.303,10.2-4.303h49.731
	c3.499,0,5.528,3.951,3.485,6.79c-5.243,7.284-12.228,20.01-12.228,36.116c0,16.105,6.984,28.83,12.228,36.115
	c2.043,2.838,0.013,6.79-3.485,6.79h-49.731c-3.843,0-7.517-1.553-10.2-4.303c-5.711-5.854-14.217-18.024-14.217-38.603
	C350.031,263.769,358.537,251.598,364.248,245.745z M77.386,280.437l129.023-92.403c2.637-1.889,6.304-0.004,6.304,3.238v50.171
	h114.106c3.497,0,5.528,3.951,3.483,6.79c-5.242,7.284-12.227,20.01-12.227,36.116c0,16.105,6.983,28.83,12.227,36.115
	c2.045,2.838,0.014,6.79-3.483,6.79H212.713v50.171c0,3.242-3.667,5.127-6.304,3.238L77.386,288.259
	C74.708,286.34,74.708,282.355,77.386,280.437z"/>
</svg>
