<?xml version="1.0" encoding="utf-8"?>
<!-- Generator: Adobe Illustrator 15.0.0, SVG Export Plug-In . SVG Version: 6.00 Build 0)  -->
<!DOCTYPE svg PUBLIC "-//W3C//DTD SVG 1.1//EN" "http://www.w3.org/Graphics/SVG/1.1/DTD/svg11.dtd">
<svg version="1.1" id="Layer_1" xmlns="http://www.w3.org/2000/svg" xmlns:xlink="http://www.w3.org/1999/xlink" x="0px" y="0px"
	 width="568.681px" height="568.695px" viewBox="0 0 568.681 568.695" enable-background="new 0 0 568.681 568.695"
	 xml:space="preserve">
<path stroke="#000000" stroke-miterlimit="10" d="M564.388,273.966L294.722,4.299C291.948,1.527,288.262,0,284.34,0
	s-7.608,1.527-10.382,4.299L4.292,273.966c-5.723,5.724-5.723,15.04,0,20.763l269.666,269.666c2.774,2.772,6.46,4.3,10.382,4.3
	s7.608-1.527,10.382-4.3l269.666-269.666C570.111,289.005,570.111,279.69,564.388,273.966z M432.046,357.847
	c-18.397,12.889-62.193,15.086-62.193,15.086s6.609,29.893,0,35.998c-17.267,15.949-145.766,14.949-158.741,0
	c-5.897-6.795,0-35.998,0-35.998s-43.796-2.197-62.193-15.086c-14.942-10.467-41.002-38.36-27.65-96.87
	c7.499-32.863,24.952-95.097,169.213-95.097c144.262,0,161.715,62.234,169.214,95.097
	C473.048,319.487,446.986,347.38,432.046,357.847z"/>
<path stroke="#000000" stroke-miterlimit="10" d="M283.312,311.402c-8.886,1.688-22.468,37.379-19.615,44.227
	c2.852,6.846,9.088-2.837,22.252,0c11.613,2.503,11.58,5.68,17.613,5.753c4.268,0.05,0.096-18.302-3.416-36
	C297.479,311.943,292.198,309.715,283.312,311.402"/>
<path stroke="#000000" stroke-miterlimit="10" d="M216.496,279.347l29.903-26.16c3.029-2.958,3.029-7.756,0-10.714
	c-3.026-2.96-7.939-2.96-10.966,0l-26.007,29.804l-26.569-29.793c-2.769-2.952-7.266-2.952-10.036,0
	c-2.772,2.95-2.772,7.736,0,10.686l29.534,26.177l-30.006,26.162c-3.102,2.957-3.102,7.752,0,10.709
	c1.548,1.48,3.582,2.219,5.614,2.219c2.031,0,4.064-0.738,5.613-2.219l25.85-29.801l26.479,29.67c1.405,1.434,3.249,2.15,5.092,2.15
	c1.843,0,3.687-0.717,5.093-2.15c2.812-2.865,2.812-7.512,0-10.379L216.496,279.347z"/>
<path stroke="#000000" stroke-width="5" stroke-miterlimit="10" d="M216.496,279.347l29.903-26.16c3.029-2.958,3.029-7.756,0-10.714
	c-3.026-2.96-7.939-2.96-10.966,0l-26.007,29.804l-26.569-29.793c-2.769-2.952-7.266-2.952-10.036,0
	c-2.772,2.95-2.772,7.736,0,10.686l29.534,26.177l-30.006,26.162c-3.102,2.957-3.102,7.752,0,10.709
	c1.548,1.48,3.582,2.219,5.614,2.219c2.031,0,4.064-0.738,5.613-2.219l25.85-29.801l26.479,29.67c1.405,1.434,3.249,2.15,5.092,2.15
	c1.843,0,3.687-0.717,5.093-2.15c2.812-2.865,2.812-7.512,0-10.379L216.496,279.347z"/>
<path stroke="#000000" stroke-miterlimit="10" d="M366.482,279.347l29.903-26.16c3.029-2.958,3.029-7.756,0-10.714
	c-3.026-2.96-7.939-2.96-10.966,0l-26.008,29.804l-26.568-29.793c-2.77-2.952-7.267-2.952-10.036,0
	c-2.772,2.95-2.772,7.736,0,10.686l29.534,26.177l-30.007,26.162c-3.102,2.957-3.102,7.752,0,10.709
	c1.55,1.48,3.583,2.219,5.614,2.219s4.064-0.738,5.614-2.219l25.849-29.801l26.479,29.67c1.404,1.434,3.25,2.15,5.093,2.15
	c1.842,0,3.686-0.717,5.092-2.15c2.813-2.865,2.813-7.512,0-10.379L366.482,279.347z"/>
<path stroke="#000000" stroke-width="5" stroke-miterlimit="10" d="M366.482,279.347l29.903-26.16c3.029-2.958,3.029-7.756,0-10.714
	c-3.026-2.96-7.939-2.96-10.966,0l-26.008,29.804l-26.568-29.793c-2.77-2.952-7.267-2.952-10.036,0
	c-2.772,2.95-2.772,7.736,0,10.686l29.534,26.177l-30.007,26.162c-3.102,2.957-3.102,7.752,0,10.709
	c1.55,1.48,3.583,2.219,5.614,2.219s4.064-0.738,5.614-2.219l25.849-29.801l26.479,29.67c1.404,1.434,3.25,2.15,5.093,2.15
	c1.842,0,3.686-0.717,5.092-2.15c2.813-2.865,2.813-7.512,0-10.379L366.482,279.347z"/>
</svg>
