<?xml version="1.0" encoding="utf-8"?>
<!-- Generator: Adobe Illustrator 15.0.0, SVG Export Plug-In . SVG Version: 6.00 Build 0)  -->
<!DOCTYPE svg PUBLIC "-//W3C//DTD SVG 1.1//EN" "http://www.w3.org/Graphics/SVG/1.1/DTD/svg11.dtd">
<svg version="1.1" id="Layer_1" xmlns="http://www.w3.org/2000/svg" xmlns:xlink="http://www.w3.org/1999/xlink" x="0px" y="0px"
	 width="568.682px" height="568.695px" viewBox="0 0 568.682 568.695" enable-background="new 0 0 568.682 568.695"
	 xml:space="preserve">
<path d="M564.389,273.966L294.723,4.299C291.949,1.527,288.263,0,284.341,0c-3.921,0-7.608,1.527-10.381,4.299L4.293,273.966
	c-5.724,5.724-5.724,15.04,0,20.763L273.96,564.395c2.773,2.772,6.46,4.3,10.381,4.3c3.922,0,7.608-1.527,10.382-4.3
	l269.666-269.666C570.112,289.005,570.112,279.69,564.389,273.966z M282.925,446.453c-10.006,5.122-16.178,7.81-18.524,8.054
	c-2.345,0.244-5.259-1.762-8.725-6.006c-3.475-4.251-5.602-10.153-6.389-17.709l-2.483-23.845
	c-0.081-0.782,5.073-3.751,15.468-8.921c10.391-5.164,16.435-7.836,18.132-8.013c1.693-0.176,4.397,1.782,8.119,5.871
	c3.718,4.096,5.823,8.482,6.312,13.173l2.972,28.536C297.89,438.375,292.923,441.324,282.925,446.453z M334.784,251.978
	c-11.448,12.788-23,23.869-34.669,33.246l-17.501,14.072l1.14,10.945c0.842,8.08,2.868,14.26,6.078,18.531
	c3.212,4.277,6.274,6.526,9.199,6.748l3.991,0.374l0.896,8.599c-23.735,17.487-36.514,26.327-38.334,26.517
	c-1.826,0.19-6.23-2.248-13.209-7.317c-6.986-5.065-10.758-10.338-11.327-15.812l-5.496-52.772
	c-0.299-2.864,7.548-10.331,23.548-22.406c15.993-12.069,27.558-21.837,34.684-29.296c7.127-7.46,10.445-13.535,9.957-18.225
	l-4.723-45.345c-1.194-11.464-3.141-19.361-5.827-23.694c-2.691-4.326-6.576-6.23-11.657-5.701c-5.082,0.529-9.44,3.62-13.063,9.263
	l3.338,32.054c0.624,5.997,0.014,10.272-1.824,12.834c-1.845,2.563-4.378,4.804-7.598,6.719l-38.619,23.779l-6.042-4.902
	c6.222-8.552,8.872-17.255,7.949-26.117l-4.641-44.563c-0.163-1.564,12.915-9.378,39.245-23.449
	c26.324-14.066,41.896-21.355,46.722-21.857c4.819-0.502,12.001,4.615,21.553,15.339c9.545,10.73,14.646,19.219,15.297,25.474
	l7.043,67.625C351.601,229.419,346.229,239.197,334.784,251.978z"/>
</svg>
