<?xml version="1.0" encoding="utf-8"?>
<!-- Generator: Adobe Illustrator 15.0.0, SVG Export Plug-In . SVG Version: 6.00 Build 0)  -->
<!DOCTYPE svg PUBLIC "-//W3C//DTD SVG 1.1//EN" "http://www.w3.org/Graphics/SVG/1.1/DTD/svg11.dtd">
<svg version="1.1" id="Layer_1" xmlns="http://www.w3.org/2000/svg" xmlns:xlink="http://www.w3.org/1999/xlink" x="0px" y="0px"
	 width="544px" height="544px" viewBox="0 0 544 544" enable-background="new 0 0 544 544" xml:space="preserve">
<path d="M464.333,79.667C412.959,28.293,344.653,0,272,0C199.347,0,131.041,28.293,79.667,79.667S0,199.346,0,272
	c0,72.653,28.293,140.959,79.667,192.333S199.347,544,272,544c72.653,0,140.959-28.293,192.333-79.667S544,344.653,544,272
	C544,199.346,515.707,131.041,464.333,79.667z M310.223,482.504c17.36-11.109,28.326-29.83,34.339-49.449
	c13.081-42.684-2.5-71.5-15.5-91c-1.5,9.5-12.5,29.5-38.5,49.5c-23.261,17.893-48,27.5-55.5,49
	c-5.225,14.978-4.229,34.448,10.516,44.891c-45.705-5.255-81.516-29.391-109.516-71.391c-38.947-58.422-20.5-154.5,9.5-178
	c-4.5,56.5,30.556,117.579,82,82.5c43.996-30-22-88.5,0-170.5c17.228-64.212,58-87,83.5-89.5c-11.5,44,4.5,109,47,143.5
	c34.135,27.709,72.156,59.5,72,134.5C429.887,420.613,365.198,468.303,310.223,482.504z"/>
</svg>
