<?xml version="1.0" encoding="utf-8"?>
<!-- Generator: Adobe Illustrator 15.0.0, SVG Export Plug-In . SVG Version: 6.00 Build 0)  -->
<!DOCTYPE svg PUBLIC "-//W3C//DTD SVG 1.1//EN" "http://www.w3.org/Graphics/SVG/1.1/DTD/svg11.dtd">
<svg version="1.1" id="Layer_1" xmlns="http://www.w3.org/2000/svg" xmlns:xlink="http://www.w3.org/1999/xlink" x="0px" y="0px"
	 width="544px" height="544px" viewBox="0 0 544 544" enable-background="new 0 0 544 544" xml:space="preserve">
<polygon points="234.271,250.293 234.271,293.86 272,315.643 309.729,293.86 309.729,250.293 272,228.511 "/>
<path d="M464.333,79.667C412.958,28.293,344.653,0,272,0C199.346,0,131.041,28.293,79.667,79.667S0,199.346,0,272
	c0,72.653,28.293,140.959,79.667,192.333S199.346,544,272,544c72.653,0,140.959-28.293,192.333-79.667S544,344.653,544,272
	C544,199.346,515.707,131.041,464.333,79.667z M462.947,329.531l-33.459,24.553l29.336,17.772c3.348,1.934,4.495,6.215,2.563,9.562
	c-1.298,2.245-3.651,3.501-6.07,3.501c-1.188,0-2.39-0.303-3.493-0.938l-30.066-16.464l-4.527,41.197
	c-0.394,3.583-3.426,6.236-6.949,6.236c-0.256,0-0.513-0.015-0.773-0.043c-3.843-0.422-6.615-3.88-6.193-7.723l5.159-46.941
	l-31.333-17.157l-5.268,60.063c-0.319,3.644-3.376,6.389-6.966,6.389c-0.205,0-0.411-0.009-0.619-0.026
	c-3.851-0.338-6.699-3.733-6.361-7.585l5.803-66.184l-50.578-27.694l-30.797,17.781l-1.22,57.455l60.355,28.131
	c3.504,1.633,5.021,5.798,3.388,9.302c-1.188,2.548-3.713,4.045-6.35,4.045c-0.99,0-1.995-0.211-2.952-0.657l-54.767-25.525
	l-0.759,35.738l43.301,19.034c3.539,1.556,5.146,5.686,3.59,9.225c-1.152,2.623-3.719,4.186-6.412,4.186
	c-0.94,0-1.896-0.19-2.812-0.594l-37.987-16.699L279,483.762c0,3.866-3.134,7-7,7c-3.866,0-7-3.134-7-7l-0.772-34.271l-37.946,16.68
	c-0.916,0.402-1.872,0.594-2.812,0.594c-2.693,0-5.259-1.562-6.412-4.186c-1.556-3.539,0.051-7.669,3.591-9.225l43.238-19.006
	l-0.805-35.717l-54.659,25.476c-0.956,0.445-1.963,0.657-2.952,0.657c-2.638,0-5.162-1.497-6.35-4.045
	c-1.633-3.504-0.116-7.669,3.388-9.302l60.228-28.071l-1.299-57.635l-30.91-17.846l-50.276,27.66l5.821,66.402
	c0.337,3.852-2.51,7.247-6.362,7.585c-0.208,0.018-0.415,0.026-0.619,0.026c-3.59,0-6.647-2.745-6.966-6.389l-5.282-60.249
	l-31.329,17.236l5.17,47.048c0.422,3.843-2.351,7.301-6.194,7.723c-0.26,0.028-0.517,0.043-0.773,0.043
	c-3.524,0-6.556-2.653-6.949-6.236l-4.536-41.271l-30.057,16.537c-1.103,0.636-2.306,0.938-3.493,0.938
	c-2.42,0-4.773-1.255-6.07-3.501c-1.932-3.348-0.785-7.629,2.563-9.562l29.275-17.816l-33.399-24.509
	c-3.116-2.287-3.789-6.668-1.502-9.784c2.286-3.116,6.667-3.791,9.785-1.503l38.053,27.923l30.509-18.567l-49.346-34.566
	c-3.167-2.218-3.936-6.583-1.718-9.749c2.22-3.167,6.585-3.937,9.749-1.718l54.373,38.087l49.316-30.013v-35.498l-49.135-29.769
	l-54.553,38.214c-1.223,0.856-2.624,1.267-4.011,1.267c-2.206,0-4.377-1.04-5.739-2.984c-2.218-3.166-1.449-7.532,1.717-9.749
	l49.5-34.675l-30.575-18.524l-38.14,27.987c-1.248,0.915-2.698,1.356-4.136,1.356c-2.153,0-4.278-0.99-5.649-2.859
	c-2.287-3.117-1.614-7.497,1.502-9.785l33.46-24.553l-29.336-17.773c-3.348-1.932-4.495-6.214-2.563-9.561
	c1.934-3.348,6.215-4.495,9.563-2.562l30.065,16.463l4.528-41.196c0.422-3.844,3.892-6.618,7.722-6.193
	c3.843,0.421,6.616,3.879,6.194,7.722l-5.159,46.941l31.334,17.157l5.266-60.063c0.337-3.85,3.727-6.708,7.585-6.361
	c3.852,0.337,6.699,3.733,6.362,7.584l-5.802,66.183l50.579,27.694l30.711-17.73l1.253-57.683l-60.305-28.107
	c-3.504-1.632-5.021-5.797-3.388-9.301c1.634-3.504,5.796-5.021,9.302-3.388l54.724,25.505l0.778-35.73l-43.276-19.022
	c-3.54-1.556-5.147-5.686-3.591-9.225c1.554-3.538,5.686-5.148,9.224-3.591l37.972,16.69L265,60.239c0-3.867,3.134-7,7-7
	c3.866,0,7,3.133,7,7l0.755,34.279l37.962-16.687c3.538-1.557,7.669,0.053,9.225,3.591c1.556,3.539-0.051,7.669-3.591,9.225
	l-43.263,19.017l0.787,35.725l54.701-25.495c3.506-1.634,7.669-0.115,9.302,3.388c1.634,3.504,0.116,7.669-3.388,9.301
	l-60.278,28.095l1.271,57.719l30.678,17.712l50.569-27.693l-5.803-66.19c-0.338-3.851,2.511-7.247,6.361-7.584
	c3.874-0.349,7.247,2.511,7.585,6.361l5.269,60.069l31.334-17.159l-5.161-46.945c-0.422-3.843,2.351-7.3,6.193-7.722
	c3.842-0.428,7.302,2.349,7.723,6.193l4.529,41.199l30.064-16.465c3.35-1.934,7.63-0.786,9.563,2.562
	c1.932,3.348,0.784,7.63-2.563,9.562l-29.336,17.773l33.459,24.552c3.116,2.288,3.789,6.668,1.502,9.786
	c-1.371,1.869-3.496,2.859-5.648,2.859c-1.438,0-2.889-0.441-4.137-1.357l-38.139-27.987l-30.575,18.524l49.499,34.675
	c3.166,2.217,3.936,6.583,1.717,9.749c-1.361,1.944-3.533,2.984-5.738,2.984c-1.389,0-2.788-0.411-4.012-1.267l-54.552-38.214
	l-49.135,29.768v35.871l49.134,29.767l54.553-38.213c3.168-2.219,7.531-1.448,9.75,1.717c2.219,3.167,1.449,7.532-1.717,9.75
	l-49.5,34.674l30.576,18.523l38.139-27.986c3.118-2.288,7.499-1.614,9.785,1.503C466.736,322.863,466.063,327.244,462.947,329.531z"
	/>
</svg>
