<?xml version="1.0" encoding="utf-8"?>
<!-- Generator: Adobe Illustrator 15.0.0, SVG Export Plug-In . SVG Version: 6.00 Build 0)  -->
<!DOCTYPE svg PUBLIC "-//W3C//DTD SVG 1.1//EN" "http://www.w3.org/Graphics/SVG/1.1/DTD/svg11.dtd">
<svg version="1.1" id="Layer_1" xmlns="http://www.w3.org/2000/svg" xmlns:xlink="http://www.w3.org/1999/xlink" x="0px" y="0px"
	 width="544px" height="544px" viewBox="0 0 544 544" enable-background="new 0 0 544 544" xml:space="preserve">
<polygon points="244.473,205.546 257.782,172.33 227.515,164.566 211.58,191.472 "/>
<polygon points="191.47,211.579 164.581,227.5 172.334,257.781 205.546,244.474 "/>
<polygon points="272,136.848 281.418,160.353 308.678,151.307 272.053,89.368 235.361,151.32 262.582,160.353 "/>
<polygon points="186.392,199.712 176.432,176.433 199.711,186.394 212.585,160.736 142.911,142.861 160.758,212.572 "/>
<polygon points="338.454,299.527 352.531,332.427 379.454,316.503 371.673,286.216 "/>
<polygon points="352.531,211.574 338.454,244.474 371.673,257.784 379.454,227.5 "/>
<polygon points="367.567,176.433 357.606,199.712 383.282,212.594 401.195,142.861 331.42,160.746 344.289,186.394 "/>
<polygon points="299.525,205.546 332.427,191.468 316.519,164.566 286.217,172.333 "/>
<polygon points="164.581,316.502 191.47,332.422 205.546,299.527 172.334,286.219 "/>
<polygon points="244.473,338.454 211.58,352.528 227.516,379.437 257.783,371.671 "/>
<polygon points="383.648,262.582 407.152,272 383.647,281.418 392.691,308.673 454.687,272.003 392.69,235.33 "/>
<polygon points="357.606,344.288 367.567,367.568 344.289,357.606 331.419,383.257 401.195,401.146 383.281,331.406 "/>
<polygon points="160.35,281.417 136.846,272 160.35,262.583 151.316,235.355 89.419,272.003 151.315,308.648 "/>
<path d="M464.333,79.667C412.958,28.293,344.653,0,272,0C199.346,0,131.041,28.293,79.667,79.667S0,199.347,0,272
	c0,72.653,28.293,140.959,79.667,192.333S199.346,544,272,544c72.653,0,140.959-28.293,192.333-79.667S544,344.653,544,272
	C544,199.347,515.707,131.041,464.333,79.667z M490.998,277.363l-93.184,46.752l32.832,98.947c0.715,2.154,0.153,4.527-1.452,6.132
	c-1.143,1.144-2.677,1.758-4.242,1.758c-0.633,0-1.271-0.1-1.89-0.306l-98.948-32.83l-46.751,93.182
	c-1.019,2.029-3.094,3.31-5.362,3.31c-2.271,0-4.345-1.28-5.364-3.31l-46.752-93.182l-98.947,32.83
	c-2.154,0.717-4.527,0.152-6.132-1.452s-2.167-3.978-1.452-6.132l32.83-98.948l-93.181-46.751c-2.03-1.019-3.31-3.094-3.31-5.363
	c0-2.269,1.28-4.345,3.31-5.363l93.181-46.751l-32.83-98.948c-0.715-2.155-0.153-4.528,1.452-6.132
	c1.604-1.604,3.979-2.17,6.132-1.452l98.947,32.831l46.752-93.183c1.019-2.029,3.094-3.309,5.364-3.309
	c2.269,0,4.344,1.28,5.362,3.309l46.752,93.183l98.947-32.831c2.152-0.719,4.527-0.153,6.132,1.452
	c1.605,1.604,2.167,3.977,1.452,6.132l-32.831,98.947l93.183,46.752c2.028,1.018,3.309,3.094,3.309,5.363
	C494.306,274.27,493.026,276.345,490.998,277.363z"/>
<polygon points="299.525,338.454 286.216,371.669 316.518,379.438 332.427,352.532 "/>
<polygon points="176.432,367.568 186.392,344.288 160.759,331.428 142.911,401.146 212.586,383.268 199.711,357.606 "/>
<polygon points="272,407.152 262.582,383.648 235.36,392.681 272.053,454.638 308.679,392.694 281.417,383.648 "/>
</svg>
