<?xml version="1.0" encoding="utf-8"?>
<!-- Generator: Adobe Illustrator 15.0.0, SVG Export Plug-In . SVG Version: 6.00 Build 0)  -->
<!DOCTYPE svg PUBLIC "-//W3C//DTD SVG 1.1//EN" "http://www.w3.org/Graphics/SVG/1.1/DTD/svg11.dtd">
<svg version="1.1" id="Layer_1" xmlns="http://www.w3.org/2000/svg" xmlns:xlink="http://www.w3.org/1999/xlink" x="0px" y="0px"
	 width="544px" height="544px" viewBox="0 0 544 544" enable-background="new 0 0 544 544" xml:space="preserve">
<path d="M317.83,126.215c-8.87,0-17.561,0.799-26,2.32c6.06,2.78,11.91,5.939,17.529,9.439c1.787,1.114,3.54,2.273,5.278,3.454
	c73.095,1.199,131.972,59.192,131.972,130.577c0,71.372-58.873,129.363-131.963,130.566c-1.737,1.182-3.49,2.341-5.276,3.453
	c-5.62,3.5-11.48,6.66-17.54,9.44c8.439,1.521,17.13,2.32,26,2.32c80.38,0,145.779-65.4,145.779-145.78
	C463.609,191.615,398.21,126.215,317.83,126.215z"/>
<path d="M371.96,272.005c0-57.709-33.7-107.689-82.45-131.3c-5.64-2.731-11.49-5.12-17.51-7.11c-6.42-2.14-13.05-3.831-19.83-5.06
	c-8.44-1.521-17.12-2.32-25.99-2.32c-80.39,0-145.79,65.4-145.79,145.79c0,80.38,65.4,145.78,145.79,145.78
	c8.87,0,17.55-0.8,25.99-2.32c6.78-1.229,13.41-2.92,19.83-5.06c6.02-1.99,11.87-4.381,17.51-7.11
	C338.26,379.685,371.96,329.705,371.96,272.005z"/>
<path d="M464.333,79.667C412.959,28.293,344.653,0,272,0C199.347,0,131.041,28.293,79.667,79.667S0,199.347,0,272
	c0,72.653,28.293,140.959,79.667,192.333S199.347,544,272,544c72.653,0,140.959-28.293,192.333-79.667S544,344.653,544,272
	C544,199.347,515.707,131.041,464.333,79.667z M317.83,429.785c-15.93,0-31.311-2.37-45.82-6.79c-14.51,4.42-29.901,6.79-45.83,6.79
	c-87.01,0-157.79-70.78-157.79-157.78c0-87.01,70.78-157.79,157.79-157.79c15.929,0,31.32,2.37,45.83,6.79
	c14.51-4.42,29.891-6.79,45.82-6.79c87,0,157.779,70.78,157.779,157.79C475.609,359.005,404.83,429.785,317.83,429.785z"/>
</svg>
