<?xml version="1.0" encoding="utf-8"?>
<!-- Generator: Adobe Illustrator 15.0.0, SVG Export Plug-In . SVG Version: 6.00 Build 0)  -->
<!DOCTYPE svg PUBLIC "-//W3C//DTD SVG 1.1//EN" "http://www.w3.org/Graphics/SVG/1.1/DTD/svg11.dtd">
<svg version="1.1" id="Layer_1" xmlns="http://www.w3.org/2000/svg" xmlns:xlink="http://www.w3.org/1999/xlink" x="0px" y="0px"
	 width="544px" height="544px" viewBox="0 0 544 544" enable-background="new 0 0 544 544" xml:space="preserve">
<path d="M464.333,79.667C412.959,28.293,344.653,0,272,0C199.346,0,131.041,28.293,79.667,79.667S0,199.347,0,272
	c0,72.653,28.293,140.959,79.667,192.333S199.346,544,272,544c72.653,0,140.959-28.293,192.333-79.667S544,344.653,544,272
	C544,199.347,515.707,131.041,464.333,79.667z M378.014,362.532c-73.5,72.5-133.5,40.5-166,29c-1.5,18,4.501,41.921,9.501,58.421
	s-27.001,21.079-31.001,18.079s-18.611-83.753,18.5-133c47.5-63.031,163-118,166.5-162.5c-22.5,20-51.809,46.518-129,89.5
	c-68.444,38.111-80.629,85.598-82.665,104.822c-0.423,4-4.892,6.179-8.264,3.987c-24.283-15.779-85.571-80.678-11.571-162.809
	c73.487-81.563,169.567-37.861,265.702-95.873c2.907-1.755,6.665-0.165,7.4,3.15C430.251,174.481,438.077,303.285,378.014,362.532z"
	/>
</svg>
