<?xml version="1.0" encoding="utf-8"?>
<!-- Generator: Adobe Illustrator 15.0.0, SVG Export Plug-In . SVG Version: 6.00 Build 0)  -->
<!DOCTYPE svg PUBLIC "-//W3C//DTD SVG 1.1//EN" "http://www.w3.org/Graphics/SVG/1.1/DTD/svg11.dtd">
<svg version="1.1" id="Layer_1" xmlns="http://www.w3.org/2000/svg" xmlns:xlink="http://www.w3.org/1999/xlink" x="0px" y="0px"
	 width="560px" height="560px" viewBox="0 0 560 560" enable-background="new 0 0 560 560" xml:space="preserve">
<path d="M450.472,489.744c-2.607-0.001-4.236-1.082-5.144-1.99L280,322.427L114.672,487.754c-0.907,0.908-2.537,1.99-5.144,1.99
	c-9.428,0-33.532-18.093-39.001-31.297c-2.906-7.014-0.17-11.23,1.719-13.119L237.574,280L72.246,114.672
	c-2.085-2.084-5.047-6.872-1.467-15.515c5.437-13.127,23.817-30.064,35.888-30.064c3.175,0,5.944,1.09,8.005,3.153L280,237.573
	L445.328,72.246c2.062-2.063,4.83-3.153,8.005-3.153c12.071,0,30.452,16.937,35.889,30.064c3.58,8.643,0.617,13.431-1.468,15.515
	L322.427,280l165.327,165.328c1.89,1.89,4.626,6.106,1.718,13.123c-5.472,13.205-29.571,31.293-38.998,31.293H450.472z"/>
<path d="M280,16c145.803,0,264,118.196,264,264c0,145.803-118.197,264-264,264C134.197,544,16,425.803,16,280
	C16,134.196,134.197,16,280,16 M280,0c-37.793,0-74.463,7.405-108.994,22.011C137.662,36.113,107.72,56.301,82.01,82.01
	c-25.709,25.71-45.897,55.652-59.999,88.997C7.405,205.536,0,242.207,0,280s7.405,74.464,22.011,108.993
	c14.102,33.345,34.29,63.287,59.999,88.997c25.71,25.709,55.652,45.896,88.996,59.999C205.537,552.595,242.207,560,280,560
	s74.463-7.405,108.994-22.011c33.344-14.104,63.286-34.29,88.996-59.999c25.709-25.71,45.896-55.652,60-88.997
	C552.595,354.464,560,317.793,560,280s-7.405-74.464-22.01-108.993c-14.104-33.345-34.291-63.287-60-88.997
	c-25.71-25.709-55.652-45.896-88.996-59.999C354.463,7.405,317.793,0,280,0"/>
</svg>
