<?xml version="1.0" encoding="utf-8"?>
<!-- Generator: Adobe Illustrator 15.0.0, SVG Export Plug-In . SVG Version: 6.00 Build 0)  -->
<!DOCTYPE svg PUBLIC "-//W3C//DTD SVG 1.1//EN" "http://www.w3.org/Graphics/SVG/1.1/DTD/svg11.dtd">
<svg version="1.1" id="Layer_1" xmlns="http://www.w3.org/2000/svg" xmlns:xlink="http://www.w3.org/1999/xlink" x="0px" y="0px"
	 width="544px" height="544px" viewBox="0 0 544 544" enable-background="new 0 0 544 544" xml:space="preserve">
<path d="M464.333,79.667C412.959,28.293,344.653,0,272,0C199.346,0,131.041,28.293,79.667,79.667S0,199.346,0,272
	c0,72.653,28.293,140.959,79.667,192.333S199.346,544,272,544c72.653,0,140.959-28.293,192.333-79.667S544,344.653,544,272
	C544,199.346,515.707,131.041,464.333,79.667z M84.165,256.513c17.13,0.694,65.046-0.092,90.217-28.105
	c31-34.5,23.941-58.037,51.5-83c19.25-17.436,63.27-22.991,94.25,3.5c34.5,29.5,16.167,87.084-18.083,104.834
	c-29.002,15.029-65.417,10.166-73.667-13.334c-9.187-26.169,9.75-49.25,29-49c20.302,0.264,17.5,20.5,17.5,20.5
	s-6-10.495-14.25-9.25c-10.455,1.577-19.681,14.673-14.25,27.75c6.75,16.25,35.776,23.443,56.667-1.333
	c21.5-25.5,16.833-60.167-18.667-72.667c-32.81-11.553-52.048,12.647-69.5,45.005c-13.75,25.495-29.25,57.995-76.5,60.715
	c-34.634,1.994-48.046-0.746-54.7-3.299C82.418,258.345,82.812,256.458,84.165,256.513z M380.882,390.907
	c-10.5,9.25-42,32.5-101.5,17.5s-123.649-69.333-157.5-85.499c-31.154-14.88-44.578-18.084-71.239-23.688
	c-1.381-0.291-1.32-2.293,0.079-2.479c12.504-1.673,42.559-2.758,81.66,15.666c52,24.5,135.969,79.235,185.7,76.263
	c42.05-2.514,62.53-18.325,60.3-37.763c-1.75-15.25-18.75-25.25-31.75-20.25s-18.75,16.75-17.75,27.75c-11-8.5-7-25-3.5-29.5
	s22.691-30.668,55.5-8C408.382,339.908,396.757,376.922,380.882,390.907z M441.882,312.907c-22.972-1.237-38.491-14.355-41.5-25.02
	c-3.333-11.813,1.333-27.146,15-31.479c-4,17.999,5.786,37.679,26,36.499c20-1.166,37.667-26.222,19-44.999
	c-18.696-18.807-42-15.167-56-6.5c-14.928,9.241-50,43.999-80,58.499c-28.79,13.915-70.96,29.096-114.567,17.501
	c-37.151-9.878-48.553-13.175-69.761-24.782c-0.97-0.531-0.358-2.014,0.7-1.69c22.24,6.79,78.774,19.586,119.628,8.972
	c59.667-15.5,70.5-50.999,130-79.833c37.951-18.39,87.5-5.166,101,31.834C504.882,288.907,469.715,314.407,441.882,312.907z"/>
</svg>
