<?xml version="1.0" encoding="utf-8"?>
<!-- Generator: Adobe Illustrator 15.0.0, SVG Export Plug-In . SVG Version: 6.00 Build 0)  -->
<!DOCTYPE svg PUBLIC "-//W3C//DTD SVG 1.1//EN" "http://www.w3.org/Graphics/SVG/1.1/DTD/svg11.dtd">
<svg version="1.1" id="Layer_1" xmlns="http://www.w3.org/2000/svg" xmlns:xlink="http://www.w3.org/1999/xlink" x="0px" y="0px"
	 width="499.167px" height="485.561px" viewBox="0 0 499.167 485.561" enable-background="new 0 0 499.167 485.561"
	 xml:space="preserve">
<path d="M353.236,0.032c-20.458-1.363-30.005,40.916-103.652,40.916c-73.647,0-83.194-42.279-103.652-40.916
	C125.474,1.396,0,99.593,0,99.593c21.822,76.375,80.467,117.291,80.467,117.291v231.853c0,0,36.824,36.824,169.117,36.824
	S418.7,448.737,418.7,448.737V216.884c0,0,58.646-40.916,80.467-117.291C499.167,99.593,373.693,1.396,353.236,0.032z
	 M122.657,239.173c-7.712-1.757-8.864-6.174-8.864-8.651c0-4.658,4.533-7.012,8.176-8.904c3.04-1.58,7.281-3.522,12.963-5.937
	c10.222-4.346,23.067-9.353,34.399-13.771c7.996-3.117,15.077-5.877,19.488-7.727c0.674-1.744,1.497-3.892,2.453-6.388
	c3.859-10.076,9.691-25.303,14.965-37.938c2.973-7.122,5.37-12.478,7.327-16.375c2.908-5.787,5.318-9.884,9.881-9.884
	c1.424,0,4.912,0.511,6.549,5.243c2.235,6.461,2.614,26.196,0.846,43.993c-1.728,17.395-6.137,39.976-17.326,48.768
	c-15.26,11.99-56.095,18.621-78.488,18.621C129.873,240.223,125.712,239.869,122.657,239.173z M317.11,424.537
	c-2.187,0.453-5.112,0.683-8.697,0.683c-8.524,0-19.679-1.267-29.109-3.307c-18.924-4.094-22.615-9.352-23.812-11.056
	c-1.833-2.586-3.47-5.12-4.896-7.808c-1.427,2.684-3.058,5.21-4.884,7.783c-1.213,1.729-4.903,6.985-23.828,11.079
	c-9.43,2.04-20.585,3.308-29.109,3.308c-3.586,0-6.512-0.229-8.698-0.683c-6.902-1.431-7.647-5.794-7.647-7.604
	c0-4.537,4.27-6.766,7.701-8.558c2.907-1.517,6.751-3.292,11.203-5.348c8.666-4.001,19.451-8.981,26.352-13.592
	c6.353-4.228,10.765-16.928,13.985-26.203c1.545-4.446,2.879-8.285,4.355-11.332c0.936-1.928,3.78-7.796,9.559-7.796h2.019
	c5.783,0,8.629,5.878,9.564,7.81c1.478,3.052,2.812,6.898,4.356,11.353c3.214,9.266,7.614,21.954,13.924,26.169
	c6.912,4.6,17.691,9.573,26.354,13.57c4.466,2.061,8.323,3.841,11.238,5.361c3.439,1.793,7.719,4.025,7.719,8.565
	C324.758,418.742,324.013,423.106,317.11,424.537z M317.088,328.831c-2.198,0.456-5.139,0.686-8.74,0.686
	c-8.537,0-19.682-1.266-29.085-3.302c-18.897-4.093-22.585-9.372-23.771-11.071c-1.833-2.585-3.47-5.119-4.896-7.807
	c-1.425,2.681-3.054,5.203-4.875,7.771c-1.211,1.734-4.897,7.013-23.795,11.106c-9.404,2.036-20.549,3.302-29.086,3.302
	c-3.602,0-6.544-0.229-8.741-0.686c-6.922-1.432-7.669-5.8-7.669-7.611c0-4.537,4.27-6.766,7.701-8.557
	c2.907-1.518,6.751-3.292,11.203-5.349c8.666-4.002,19.451-8.982,26.352-13.593c6.353-4.226,10.765-16.928,13.985-26.202
	c1.545-4.446,2.879-8.286,4.355-11.332c0.936-1.928,3.78-7.796,9.559-7.796h2.019c5.783,0,8.629,5.878,9.564,7.811
	c1.478,3.051,2.812,6.897,4.356,11.352c3.214,9.265,7.614,21.954,13.924,26.168c6.912,4.6,17.691,9.574,26.354,13.571
	c4.466,2.061,8.323,3.84,11.238,5.36c3.439,1.794,7.719,4.026,7.719,8.566C324.758,323.031,324.011,327.399,317.088,328.831z
	 M378.528,239.173c-3.055,0.696-7.217,1.05-12.369,1.05c-22.393,0-63.228-6.631-78.487-18.621
	c-11.189-8.792-15.599-31.373-17.328-48.768c-1.767-17.797-1.388-37.532,0.848-43.993c1.637-4.732,5.125-5.243,6.549-5.243
	c4.562,0,6.973,4.097,9.881,9.884c1.957,3.897,4.354,9.253,7.327,16.375c5.274,12.635,11.105,27.862,14.965,37.938
	c0.956,2.496,1.779,4.644,2.453,6.388c4.41,1.85,11.492,4.61,19.487,7.727c11.333,4.418,24.177,9.425,34.399,13.771
	c5.683,2.415,9.923,4.357,12.964,5.937c3.643,1.892,8.176,4.246,8.176,8.904C387.393,232.999,386.24,237.416,378.528,239.173z"/>
</svg>
