<?xml version="1.0" encoding="utf-8"?>
<!-- Generator: Adobe Illustrator 15.0.0, SVG Export Plug-In . SVG Version: 6.00 Build 0)  -->
<!DOCTYPE svg PUBLIC "-//W3C//DTD SVG 1.1//EN" "http://www.w3.org/Graphics/SVG/1.1/DTD/svg11.dtd">
<svg version="1.1" id="Layer_1" xmlns="http://www.w3.org/2000/svg" xmlns:xlink="http://www.w3.org/1999/xlink" x="0px" y="0px"
	 width="528.301px" height="456.319px" viewBox="0 0 528.301 456.319" enable-background="new 0 0 528.301 456.319"
	 xml:space="preserve">
<path d="M525.84,242.62c-3.312,4.431-14.812,32.351-28.08,38.98c-13.28,6.639-86.26,60.83-99.53,66.35
	c-13.27,5.529-56.399,6.65-61.92,13.279c-5.531,6.63-101.741,95.09-101.741,95.09S211,442.939,183.41,416.62
	c17.39-16.091,36.47-33.829,48.71-45.439c4.74-4.5,7.89-7.54,10.03-9.651c4.99-1.068,13.93-2.278,19.72-3.059
	c14.56-1.96,27.14-3.651,36.409-7.521c9.062-3.761,25.441-14.949,60.671-39.591c15.101-10.559,35.78-25.019,40.66-27.58
	c16.721-8.389,27.24-26.488,36.58-44.318c0.68-1.301,1.57-3.011,2.04-3.852c11.13-15.8,9.561-38.54-3.85-53.38
	c-0.352-0.389-0.771-0.849-1.33-1.41c-0.57-0.559-1.28-1.22-2.2-1.979c3.84-11.05,4.679-18.151,3.27-25.14
	c-1.56-7.79-6.619-18.4-8.729-22.601c-7.84-15.66-13.97-21.509-17.89-24.549c-0.54-0.42-1.091-0.821-1.65-1.201
	c2.02-17.219,1.179-22.269,0.8-24.54c-1.78-10.549-8.35-19.49-24.27-33.03c-7.7-6.559-17.04-13.619-21.78-16.47
	c-0.5-0.299-1.01-0.589-1.531-0.87c4.111-3.37,7.381-5.729,9.301-6.5C379.43,19.51,412.61,29.47,420.35,35
	c7.74,5.529,9.96,47.55,9.96,47.55s21-7.75,26.54-4.43c5.52,3.319,31.78,23.51,32.9,30.14c1.1,6.639-4.15,38.44-4.15,38.44
	s10.99,1.369,15.469,4.84c6.031,4.66,15.21,25.01,16.321,30.54c1.11,5.54-10.771,30.97-10.771,30.97s15.011,7.82,17.681,10.78
	C529.56,229.63,529.16,238.189,525.84,242.62"/>
<path d="M413.59,200.979c-2.67-2.96-17.69-10.779-17.69-10.779s11.89-25.431,10.771-30.961c-1.102-5.529-10.29-25.88-16.312-30.55
	c-4.489-3.47-15.479-4.84-15.479-4.84s5.26-31.799,4.148-38.429c-1.119-6.641-27.369-26.83-32.898-30.141
	c-0.971-0.59-2.431-0.829-4.17-0.829c-3.17,0-7.28,0.8-11.102,1.779C324.88,57.75,319.6,59.71,319.6,59.71s-0.22-4.16-0.771-10.031
	c-0.369-4.019-0.89-8.839-1.6-13.679c-0.05-0.38-0.11-0.771-0.17-1.151c-0.1-0.7-0.21-1.399-0.33-2.099
	c-0.11-0.7-0.229-1.401-0.36-2.09c-0.119-0.691-0.239-1.37-0.38-2.051c-0.06-0.33-0.131-0.67-0.199-1
	c-0.131-0.67-0.271-1.33-0.421-1.97c-0.14-0.65-0.29-1.28-0.439-1.9c-1.38-5.59-3.111-10.029-5.29-11.59
	C303.24,7.58,279.48,0,265.18,0c-3.02,0-5.6,0.33-7.52,1.099c-11.051,4.42-67.45,61.93-67.45,61.93l-17.7-5.529
	c0,0-34.29,21-46.45,40.899c-12.16,19.91-4.43,58.63-4.43,58.63s-1.09,34.271-5.51,47.54C111.68,217.84,0,284.189,0,284.189
	c8.89,25.5,21.48,47.812,35.25,66.852l28.84,34.198c31.1,31.961,59.769,48.24,59.769,48.24s19.051-17.519,40.691-37.559
	c17.24-15.96,36.11-33.51,48.3-45.062c6.89-6.528,11.64-11.148,12.74-12.479c5.53-6.63,48.661-7.75,61.92-13.271
	c13.269-5.519,86.26-59.72,99.529-66.35c13.271-6.639,24.771-34.549,28.091-38.98C418.45,215.349,418.84,206.779,413.59,200.979z
	 M376.768,235.708c-1.202,0.473-2.44,0.697-3.658,0.697c-3.99,0-7.76-2.404-9.309-6.342
	C323.278,127.064,233.292,68.447,232.389,67.867c-4.649-2.982-6-9.168-3.018-13.816c2.981-4.649,9.168-5.999,13.816-3.018
	c0.987,0.633,24.511,15.841,53.488,44.595c26.736,26.531,63.313,70.12,85.737,127.113
	C384.435,227.88,381.908,233.685,376.768,235.708z"/>
</svg>
