<?xml version="1.0" encoding="utf-8"?>
<!-- Generator: Adobe Illustrator 15.0.0, SVG Export Plug-In . SVG Version: 6.00 Build 0)  -->
<!DOCTYPE svg PUBLIC "-//W3C//DTD SVG 1.1//EN" "http://www.w3.org/Graphics/SVG/1.1/DTD/svg11.dtd">
<svg version="1.1" id="Layer_1" xmlns="http://www.w3.org/2000/svg" xmlns:xlink="http://www.w3.org/1999/xlink" x="0px" y="0px"
	 width="440.914px" height="480.41px" viewBox="0 0 440.914 480.41" enable-background="new 0 0 440.914 480.41"
	 xml:space="preserve">
<path d="M373.458,183.396c1.451-14.508,60.938-63.838,36.272-105.912c-8.706-11.607-62.387-11.607-75.445-14.509
	c13.059-33.37-2.901-75.444-34.82-59.485c-31.918,15.96-72.542,68.19-85.602,69.641c-6.525,0.725-33.929-3.266-60.935-17.41
	C125.895,41.563,99.255,17.263,81.836,36.86c-22.749,25.592-15.96,73.993,30.468,127.675c-34.821-2.902-98.658-7.254-110.266,7.255
	c-11.606,14.508,30.469,59.485,23.214,82.699c40.624-20.312,53.682-47.878,84.15-40.624c-2.902,21.763-2.902,30.468-24.665,59.484
	c-21.762,29.019-62.386,158.145,36.272,190.063c98.658,31.919,105.914,5.803,153.792,5.803s95.757,36.271,142.183-21.762
	C463.411,389.419,438.747,261.743,373.458,183.396z M340.088,202.258c-11.607-4.353-79.797,13.057-108.814,17.41
	c-29.017,4.352-97.208-7.254-97.208-7.254l4.353-39.173c0,0,42.075,2.901,63.838,5.803c21.763,2.902,100.109-7.254,124.773-2.902
	C351.695,180.495,351.695,206.61,340.088,202.258z"/>
</svg>
