<?xml version="1.0" encoding="utf-8"?>
<!-- Generator: Adobe Illustrator 15.0.0, SVG Export Plug-In . SVG Version: 6.00 Build 0)  -->
<!DOCTYPE svg PUBLIC "-//W3C//DTD SVG 1.1//EN" "http://www.w3.org/Graphics/SVG/1.1/DTD/svg11.dtd">
<svg version="1.1" id="Layer_1" xmlns="http://www.w3.org/2000/svg" xmlns:xlink="http://www.w3.org/1999/xlink" x="0px" y="0px"
	 width="462.802px" height="480.41px" viewBox="0 0 462.802 480.41" enable-background="new 0 0 462.802 480.41"
	 xml:space="preserve">
<g>
	<path d="M460.068,243.577c-3.668,4.909-16.413,35.854-31.119,43.2c-14.718,7.359-95.598,67.414-110.305,73.532
		c-14.706,6.128-62.494,7.371-68.623,14.718c-6.128,7.349-112.753,105.383-112.753,105.383s-31.762-18.03-66.229-53.449
		l22.132-28.627l25.401-32.86c1.197-1.529-0.333-3.657-2.172-3.036l-3.203,1.097l-74.12,25.513
		C23.816,367.945,9.863,343.22,0,314.96c0,0,123.78-73.532,128.69-88.239c4.91-14.706,6.118-52.675,6.118-52.675
		s-8.567-42.923,4.909-64.978c13.476-22.053,51.478-45.327,51.478-45.327l16.591,5.176l35.343,13.808
		c0,0-40.907,24.814-42.746,26.654c-1.84,1.84,4.144,19.173,11.625,19.45c3.677,0.136,38.814-20.267,48.051-25.928
		c43.443,57.397,46.028,95.637,46.028,102.995c0,7.348-16.845,16.79-49.639,23.895c-25.046,5.43-60.832-63.337-60.832-63.337
		s-22.741,7.381-17.687,17.511c26.542,53.14,51.4,68.633,62.893,73.698c11.481,5.055,92.251-17.532,92.539-42.391
		c0.632-54.049-56.477-136.991-65.664-144.349c-6.583-5.265-28.309-14.434-39.625-18.29c6.24-6.251,6.378-6.436,15.908-15.622
		c4.777-4.6,9.653-9.233,14.353-13.588c12.046-11.182,22.841-20.448,27.219-22.199c12.268-4.909,49.04,6.129,57.617,12.258
		c8.567,6.128,11.027,52.698,11.027,52.698s23.273-8.589,29.413-4.911c6.129,3.68,35.221,26.056,36.462,33.404
		c1.219,7.358-4.6,42.6-4.6,42.6s12.18,1.519,17.145,5.365c6.683,5.164,16.856,27.717,18.087,33.845
		c1.241,6.14-11.937,34.323-11.937,34.323s16.646,8.667,19.605,11.947C464.191,229.181,463.758,238.668,460.068,243.577"/>
</g>
</svg>
