<?xml version="1.0" encoding="utf-8"?>
<!-- Generator: Adobe Illustrator 15.0.0, SVG Export Plug-In . SVG Version: 6.00 Build 0)  -->
<!DOCTYPE svg PUBLIC "-//W3C//DTD SVG 1.1//EN" "http://www.w3.org/Graphics/SVG/1.1/DTD/svg11.dtd">
<svg version="1.1" id="Layer_1" xmlns="http://www.w3.org/2000/svg" xmlns:xlink="http://www.w3.org/1999/xlink" x="0px" y="0px"
	 width="428.863px" height="485.561px" viewBox="0 0 428.863 485.561" enable-background="new 0 0 428.863 485.561"
	 xml:space="preserve">
<path d="M405.565,339.987l-33.77,6.995c0,0-37.268-18.634-111.803-17.469c-4.145-9.114-31.882-46.536-47.529-75.345h-65.725
	c-9.02,0-16.375-5.906-16.375-13.17c0-7.256,7.355-13.171,16.375-13.171h55.155c-0.087-0.694-0.125-1.35-0.125-1.966
	c0-2.948,0.559-8.642,1.531-16.331v0h-63.639c-8.337,0-15.116-5.906-15.116-13.171s6.779-13.171,15.116-13.171h67.272
	c0.858-5.781,1.792-11.918,2.756-18.296v0h-76.313c-8.081,0-14.65-5.916-14.65-13.171c0-7.265,6.569-13.171,14.65-13.171h80.388
	c0.954-6.061,1.917-12.198,2.881-18.306h-83.668c-7.859,0-14.25-5.906-14.25-13.171c0-7.265,6.391-13.171,14.25-13.171h87.764
	c5.849-37.808,10.425-69.237,8.979-70.682c-3.497-3.488-46.584,4.663-83.851-9.307C108.599-0.066,71.332-8.217,7.289,12.748
	c0,0-30.282,48.907,32.604,217.768c-12.814,59.399-34.935,189.826-27.95,211.958c13.97,17.468,102.485,43.087,117.622,43.087
	c3.497-5.819,15.137-24.453,20.966-24.453c5.819,0,59.389-3.498,81.52,1.166c3.488,10.482,3.488,16.302,3.488,16.302
	s105.974,11.648,193.324-73.369C427.697,355.133,405.565,339.987,405.565,339.987z"/>
</svg>
