<?xml version="1.0" encoding="utf-8"?>
<!-- Generator: Adobe Illustrator 15.0.0, SVG Export Plug-In . SVG Version: 6.00 Build 0)  -->
<!DOCTYPE svg PUBLIC "-//W3C//DTD SVG 1.1//EN" "http://www.w3.org/Graphics/SVG/1.1/DTD/svg11.dtd">
<svg version="1.1" id="Layer_1" xmlns="http://www.w3.org/2000/svg" xmlns:xlink="http://www.w3.org/1999/xlink" x="0px" y="0px"
	 width="315.786px" height="488.78px" viewBox="0 0 315.786 488.78" enable-background="new 0 0 315.786 488.78"
	 xml:space="preserve">
<g>
	<path d="M266.358,88.183c-22.435-22.434-56.479-34.854-85.371-39.28C174.494,23.612,161.293,3.22,157.206,3.22
		c-4.088,0-16.54,20.438-22.641,45.718C105.723,53.395,71.8,65.81,49.427,88.183C-0.804,138.414,0.001,172.996,0.001,383.061
		c42.561,70.022,72.404,105.72,72.404,105.72s34.637-102.145,22.279-184.523c-10.779-7.187-27.416-7.33-37.63-14.124
		c-5.396-3.59-9-16.91-9-16.91s46.45-20.988,93.131-19.615v137.637c0,0,2.978,9.612,16.707,9.612c13.73,0,16.707-9.612,16.707-9.612
		V253.607c46.683-1.373,93.133,19.615,93.133,19.615s-4.229,12.816-10.384,16.91c-10.281,6.84-25.94,7.254-36.248,14.124
		c-12.355,82.379,22.279,184.523,22.279,184.523s29.843-35.697,72.406-105.72C315.785,172.996,316.588,138.414,266.358,88.183"/>
</g>
</svg>
