<?xml version="1.0" encoding="utf-8"?>
<!-- Generator: Adobe Illustrator 15.0.0, SVG Export Plug-In . SVG Version: 6.00 Build 0)  -->
<!DOCTYPE svg PUBLIC "-//W3C//DTD SVG 1.1//EN" "http://www.w3.org/Graphics/SVG/1.1/DTD/svg11.dtd">
<svg version="1.1" id="Layer_1" xmlns="http://www.w3.org/2000/svg" xmlns:xlink="http://www.w3.org/1999/xlink" x="0px" y="0px"
	 width="234.757px" height="187.052px" viewBox="0 0 234.757 187.052" enable-background="new 0 0 234.757 187.052"
	 xml:space="preserve">
<path d="M227.112,117.334c-0.267,0-0.537-0.029-0.808-0.095l-7.866-1.883c-1.861-0.446-3.011-2.314-2.564-4.176
	c0.445-1.863,2.305-3.018,4.176-2.566l7.866,1.882c1.861,0.446,3.01,2.315,2.565,4.177
	C230.099,116.264,228.68,117.334,227.112,117.334"/>
<path d="M106.734,187.052c-0.265,0-0.537-0.029-0.807-0.096l-15.249-3.646c-1.862-0.445-3.01-2.316-2.566-4.177
	c0.447-1.862,2.313-3.018,4.177-2.565l15.249,3.646c1.861,0.445,3.01,2.315,2.565,4.177
	C109.723,185.981,108.303,187.052,106.734,187.052 M122.125,186.662c-1.35,0-2.634-0.792-3.192-2.111
	c-0.747-1.763,0.075-3.797,1.836-4.544c0.313-0.134,0.607-0.277,0.87-0.434l12.229-7.287c1.64-0.979,3.771-0.445,4.75,1.204
	c0.982,1.643,0.442,3.771-1.202,4.75l-12.24,7.294c-0.522,0.31-1.086,0.595-1.698,0.854
	C123.035,186.575,122.577,186.662,122.125,186.662 M76.236,179.759c-0.266,0-0.537-0.029-0.807-0.096l-15.249-3.648
	c-1.863-0.446-3.011-2.314-2.566-4.177c0.446-1.858,2.308-3.021,4.177-2.565l15.249,3.649c1.861,0.446,3.01,2.314,2.565,4.176
	C79.224,178.688,77.805,179.759,76.236,179.759 M45.738,172.464c-0.266,0-0.537-0.03-0.807-0.096l-15.249-3.646
	c-1.863-0.445-3.011-2.315-2.567-4.177c0.445-1.862,2.311-3.02,4.177-2.566l15.249,3.646c1.862,0.445,3.011,2.315,2.566,4.177
	C48.726,171.394,47.307,172.464,45.738,172.464 M149.111,170.701c-1.18,0-2.331-0.603-2.978-1.692
	c-0.983-1.643-0.443-3.771,1.201-4.75l13.47-8.028c1.64-0.979,3.77-0.447,4.75,1.203c0.98,1.643,0.441,3.77-1.203,4.749
	l-13.469,8.029C150.327,170.543,149.716,170.701,149.111,170.701 M15.242,165.171c-0.266,0-0.537-0.029-0.807-0.095l-7.584-1.814
	C0.668,161.783,0,158.268,0,156.826c0-1.214,0.426-3.006,2.459-4.642c1.492-1.2,3.669-0.964,4.874,0.528
	c0.851,1.058,0.979,2.464,0.449,3.618c0.196,0.064,0.422,0.126,0.68,0.188l7.583,1.812c1.862,0.448,3.011,2.316,2.566,4.178
	C18.229,164.101,16.81,165.171,15.242,165.171 M176.049,154.646c-1.182,0-2.331-0.603-2.979-1.691
	c-0.98-1.644-0.442-3.771,1.2-4.752l13.467-8.027c1.647-0.979,3.773-0.444,4.752,1.2c0.982,1.646,0.443,3.773-1.2,4.752
	l-13.467,8.029C177.265,154.488,176.653,154.646,176.049,154.646 M18.069,150.273c-1.179,0-2.331-0.603-2.978-1.693
	c-0.982-1.642-0.443-3.77,1.203-4.75l13.466-8.025c1.64-0.978,3.77-0.446,4.75,1.203c0.981,1.643,0.442,3.771-1.202,4.75
	l-13.467,8.026C19.286,150.115,18.674,150.273,18.069,150.273 M202.983,138.59c-1.179,0-2.33-0.603-2.978-1.692
	c-0.982-1.643-0.442-3.771,1.202-4.75l13.468-8.027c1.637-0.979,3.77-0.446,4.75,1.204c0.98,1.643,0.44,3.771-1.203,4.749
	l-13.467,8.026C204.2,138.432,203.589,138.59,202.983,138.59 M203.997,111.806c-0.267,0-0.537-0.029-0.808-0.095l-15.249-3.646
	c-1.862-0.446-3.01-2.316-2.566-4.177c0.447-1.862,2.31-3.019,4.178-2.565l15.249,3.646c1.861,0.444,3.01,2.315,2.565,4.177
	C206.984,110.735,205.565,111.806,203.997,111.806"/>
<path d="M229.956,122.472c-1.06,0-2.104-0.483-2.783-1.396c-0.821-1.104-0.888-2.537-0.289-3.681
	c-0.173-0.052-0.365-0.104-0.579-0.155c-1.862-0.446-3.011-2.316-2.566-4.177c0.447-1.862,2.307-3.021,4.178-2.566
	c5.153,1.232,6.435,3.919,6.742,5.411c0.21,1.022,0.373,3.639-2.636,5.878C231.401,122.248,230.674,122.472,229.956,122.472"/>
<path d="M128.192,125.786c-3.688,2.2-9.062,3.416-14.302,3.416c-2.353,0-4.679-0.245-6.814-0.756L5.563,104.167
	c-0.724-0.173-1.385-0.378-2.018-0.596v24.034c0,0,0.148,1.857,2.73,2.566s102.951,24.715,102.951,24.715s7.701,2.285,15.467-2.344
	c7.767-4.63,103.452-61.642,104.705-62.411c0.837-0.515,1.928-1.164,1.928-2.776V64.313L128.192,125.786z"/>
<path d="M227.167,49.156l-75.552-18.069c-3.042,3.398-6.368,7.112-9.844,10.993c8.975,10.687,17.896,21.327,19.016,22.728
	l5.56,6.955l-6.267,6.326c-4.682,4.726-18.171,13.169-28.383,13.169h-0.001c-5.876,0-9.437-2.544-11.389-4.678
	c-0.171-0.188-0.341-0.373-9.001-10.677C94.83,94.032,92.925,95.66,91.949,96.494c-3.468,2.964-7.524,4.53-11.732,4.53
	c-8.133,0-14.779-5.892-18.287-11.404l-4.239-6.659l5.494-5.669c0.891-0.929,7.983-8.85,15.491-17.236
	c3.075-3.435,6.446-7.2,9.97-11.131c-1.583-1.886-3.27-3.895-4.958-5.908L5.484,89.632c-3.319,1.978-2.313,4.46,2.23,5.546
	l101.513,24.279c4.544,1.087,10.914,0.37,14.232-1.609l105.938-63.146C232.716,52.723,231.71,50.242,227.167,49.156"/>
<path d="M160.032,6.773c-2.021-3.179-8.427-10.333-15.086-4.642c-2.272,1.944-13.255,13.936-26.126,28.185
	c-8.821-10.488-15.931-18.928-16.107-19.122c-4.494-4.911-20.604,4.047-25.291,8.778c0.405,0.507,12.33,14.72,24.462,29.168
	C86.128,66.7,71.8,82.771,70.366,84.251c2.022,3.178,8.427,10.333,15.086,4.641c2.274-1.944,13.262-13.942,26.137-28.197
	c8.807,10.484,15.908,18.929,16.096,19.135c4.494,4.912,20.604-4.047,25.291-8.779c-1.184-1.481-12.722-15.235-24.446-29.185
	C144.28,24.313,158.598,8.252,160.032,6.773"/>
</svg>
