<?xml version="1.0" encoding="utf-8"?>
<!-- Generator: Adobe Illustrator 15.0.0, SVG Export Plug-In . SVG Version: 6.00 Build 0)  -->
<!DOCTYPE svg PUBLIC "-//W3C//DTD SVG 1.1//EN" "http://www.w3.org/Graphics/SVG/1.1/DTD/svg11.dtd">
<svg version="1.1" id="Layer_1" xmlns="http://www.w3.org/2000/svg" xmlns:xlink="http://www.w3.org/1999/xlink" x="0px" y="0px"
	 width="255.235px" height="189.191px" viewBox="0 0 255.235 189.191" enable-background="new 0 0 255.235 189.191"
	 xml:space="preserve">
<path d="M107.12,120.299c-22.726,0-41.146,9.21-41.146,20.573c0,11.362,18.42,20.573,41.146,20.573
	c22.72,0,41.146-9.211,41.146-20.573C148.266,129.509,129.84,120.299,107.12,120.299"/>
<path d="M144.511,96.424c-2.39,3.46-4.438,7.159-6.104,11.045h9.514l40.804,35.338l-40.804,35.336H66.314L25.51,142.807
	l40.804-35.338h17.202c0.811-3.735,1.81-7.42,2.988-11.045H53.559L0,142.807l53.559,46.384h107.116l53.559-46.384l-53.559-46.383
	H144.511z"/>
<path d="M107.118,149.894c-9.896,0-17.949-8.052-17.949-17.949c0-26.7,9.938-52.28,27.984-72.026
	c16.786-18.366,39.202-30.229,63.57-33.742V0l74.513,43.026l-74.513,43.027V62.638c-32.134,7.079-55.655,35.832-55.655,69.307
	C125.067,141.842,117.015,149.894,107.118,149.894"/>
</svg>
