<?xml version="1.0" encoding="utf-8"?>
<!-- Generator: Adobe Illustrator 15.0.0, SVG Export Plug-In . SVG Version: 6.00 Build 0)  -->
<!DOCTYPE svg PUBLIC "-//W3C//DTD SVG 1.1//EN" "http://www.w3.org/Graphics/SVG/1.1/DTD/svg11.dtd">
<svg version="1.1" id="Layer_1" xmlns="http://www.w3.org/2000/svg" xmlns:xlink="http://www.w3.org/1999/xlink" x="0px" y="0px"
	 width="253.114px" height="193.732px" viewBox="0 0 253.114 193.732" enable-background="new 0 0 253.114 193.732"
	 xml:space="preserve">
<path d="M185.461,91.375c15.666-10.035,60.229-42.364,67.632-89.506c0.236-1.503-1.558-2.471-2.679-1.442
	c-10.631,9.756-46.44,39.191-96.998,44.916c-0.77,0.087-1.37,0.701-1.427,1.473c-1.478,20.171-4.421,48.084-17.82,84.101
	l-7.444-4.298l-7.721,4.457c-13.449-36.094-16.4-64.058-17.88-84.26c-0.057-0.772-0.657-1.386-1.427-1.473
	C49.14,39.618,13.33,10.183,2.699,0.427C1.578-0.602-0.216,0.366,0.021,1.869C7.423,49.011,51.986,81.34,67.652,91.375
	c1.428,0.915,0.661,3.135-1.026,2.958c-7.886-0.823-22.231-3.521-38.813-12.258c-1.258-0.662-2.692,0.492-2.312,1.863
	c8.188,29.535,40.438,45.5,52.447,50.518c1.432,0.599,1.268,2.68-0.241,3.045c-6.207,1.504-17.415,3.648-27.271,2.503
	c-1.448-0.169-2.348,1.481-1.44,2.62c8.387,10.508,27.934,15.995,42.29,17.627c0.068,0.008,0.377,0.088,0.881,0.226l5.496,16.478
	l29.062,16.778l29.061-16.778l6.042-16.703c14.356-1.632,33.903-7.119,42.29-17.627c0.908-1.139,0.008-2.789-1.439-2.62
	c-9.857,1.146-21.064-0.999-27.271-2.503c-1.509-0.365-1.673-2.446-0.241-3.045c12.01-5.018,44.26-20.983,52.447-50.518
	c0.38-1.371-1.054-2.525-2.312-1.863c-16.582,8.737-30.928,11.435-38.813,12.258C184.801,94.51,184.033,92.29,185.461,91.375"/>
</svg>
