<?xml version="1.0" encoding="utf-8"?>
<!-- Generator: Adobe Illustrator 15.0.0, SVG Export Plug-In . SVG Version: 6.00 Build 0)  -->
<!DOCTYPE svg PUBLIC "-//W3C//DTD SVG 1.1//EN" "http://www.w3.org/Graphics/SVG/1.1/DTD/svg11.dtd">
<svg version="1.1" id="Layer_1" xmlns="http://www.w3.org/2000/svg" xmlns:xlink="http://www.w3.org/1999/xlink" x="0px" y="0px"
	 width="212.872px" height="208.125px" viewBox="0 0 212.872 208.125" enable-background="new 0 0 212.872 208.125"
	 xml:space="preserve">
<path d="M140.349,180.833l-5.857,9.755l-8.922-7.062c-12.707-10.059-33.189-25.924-45.427-35.403
	c-5.08-3.936-8.732-6.764-9.816-7.619l-8.791-6.934l7.878-7.955c8.346-8.428,17.472-12.397,29.588-12.876l3.051-0.12l2.598,1.604
	c0.404,0.25,0.404,0.25,3.308,2.37c3.406,2.485,10.141,7.401,17.874,12.961c3.345-5.781,6.955-12.048,10.487-18.182
	c3.626-6.295,6.906-11.989,9.832-17.046c0.068-40.036,0.219-81.117,0.219-81.117c0-5.522-4.479-10-10-10H10c-5.522,0-10,4.478-10,10
	v184.917c0,5.522,4.478,10,10,10h126.37c5.521,0,10-4.478,10-10v-27.424C143.896,174.887,141.831,178.365,140.349,180.833"/>
<path d="M189.325,77.84c-2.689-4.228-11.046-6.507-18.767-5.004c-3.71,5.129-27.523,47.123-41.598,71.246
	c-15.016-10.665-29.268-21.167-29.565-21.352c-9.967,0.394-16.642,3.627-22.878,9.921c3.685,2.907,37.249,28.777,55.259,43.033
	C142.827,157.283,187.56,80.543,189.325,77.84"/>
<g>
	<defs>
		<rect id="SVGID_1_" x="112.37" width="121.373" height="214.666"/>
	</defs>
	<clipPath id="SVGID_2_">
		<use xlink:href="#SVGID_1_"  overflow="visible"/>
	</clipPath>
	
		<path clip-path="url(#SVGID_2_)" fill="none" stroke="#000000" stroke-width="12" stroke-miterlimit="10" stroke-dasharray="14,14" d="
		M205.869,25.842c0-4.769-3.864-8.634-8.634-8.634H88.134c-4.769,0-8.634,3.865-8.634,8.634v159.649
		c0,4.769,3.865,8.634,8.634,8.634h109.101c4.77,0,8.634-3.865,8.634-8.634v-24.733C205.379,160.321,205.869,25.842,205.869,25.842z
		"/>
</g>
</svg>
