<?xml version="1.0" encoding="utf-8"?>
<!-- Generator: Adobe Illustrator 15.0.0, SVG Export Plug-In . SVG Version: 6.00 Build 0)  -->
<!DOCTYPE svg PUBLIC "-//W3C//DTD SVG 1.1//EN" "http://www.w3.org/Graphics/SVG/1.1/DTD/svg11.dtd">
<svg version="1.1" id="Layer_1" xmlns="http://www.w3.org/2000/svg" xmlns:xlink="http://www.w3.org/1999/xlink" x="0px" y="0px"
	 width="215.707px" height="252.503px" viewBox="0 0 215.707 252.503" enable-background="new 0 0 215.707 252.503"
	 xml:space="preserve">
<path d="M33.825,172.096c0,0-33.958-50.147-33.824-52.814c0.296-5.935,48.066-56.671,56.968-61.122
	c8.9-4.451,30.263-4.451,44.505-8.011c14.243-3.56,24.923-8.011,29.375-1.781c4.45,6.231-3.561,36.496-14.242,41.836
	c-18.172,9.087-32.934,8.012-32.934,8.012l-4.451,5.34c0,0,27.312,27.88,22.253,48.957c-5.34,22.253-19.583,45.396-53.407,54.298
	C36.877,209.755,33.825,172.096,33.825,172.096"/>
<path d="M109.986,105.844c-1.841-0.436-3.409,1.4-2.671,3.142c4.942,11.673,15.918,45.63-5.841,79.131
	c-18.692,28.781-48.957,29.374-48.957,29.374l7.418,35.012h61.418l5.402-31.186c0.396-2.288,3.519-2.704,4.473-0.587
	c2.574,5.715,5.819,15.876,6.606,31.772h41.52c0,0-7.245-42.13-4.593-59.935c2.076-13.945,28.483-42.43,28.483-42.43l-10.088-24.627
	L109.986,105.844z"/>
<path d="M23.76,70.531l-5.958-40.855c0,0,24.191-23.466,34.715-26.704c7.715-2.374,16.912,4.451,16.912,4.451l1.78,35.011
	c0,0-15.132,1.78-20.176,4.451C43.222,51.021,23.76,70.531,23.76,70.531"/>
<path d="M87.232,40.061l0.594-30.264c0,0,20.176-9.501,28.187-9.792c8.012-0.291,19.88,14.243,19.88,14.243
	s-2.405,17.802-6.527,18.692C125.243,33.83,87.232,40.061,87.232,40.061"/>
<path d="M150.431,23.742c0,0-16.918,50.498-18.693,70.913c-0.593,6.824,28.484,12.462,30.265,8.011
	c1.78-4.45,19.879-63.198,18.989-70.32C180.101,25.225,159.035,19.588,150.431,23.742"/>
<path d="M189.002,53.413c0,0-18.989,52.517-16.318,55.484c5.362,5.959,24.626,9.198,29.967-0.593
	c5.341-9.792,13.056-32.045,13.056-37.386c0-5.34-4.154-15.131-7.715-16.912C204.011,52.016,194.343,51.039,189.002,53.413"/>
</svg>
