<?xml version="1.0" encoding="utf-8"?>
<!-- Generator: Adobe Illustrator 15.0.0, SVG Export Plug-In . SVG Version: 6.00 Build 0)  -->
<!DOCTYPE svg PUBLIC "-//W3C//DTD SVG 1.1//EN" "http://www.w3.org/Graphics/SVG/1.1/DTD/svg11.dtd">
<svg version="1.1" id="Layer_1" xmlns="http://www.w3.org/2000/svg" xmlns:xlink="http://www.w3.org/1999/xlink" x="0px" y="0px"
	 width="234.658px" height="162.68px" viewBox="0 0 234.658 162.68" enable-background="new 0 0 234.658 162.68"
	 xml:space="preserve">
<path d="M227.112,92.962c-0.267,0-0.537-0.029-0.808-0.095l-7.866-1.882c-1.861-0.446-3.01-2.315-2.565-4.177
	c0.446-1.861,2.306-3.017,4.178-2.565l7.865,1.882c1.861,0.447,3.01,2.316,2.565,4.177C230.1,91.893,228.681,92.962,227.112,92.962"
	/>
<path d="M106.735,162.68c-0.266,0-0.537-0.029-0.808-0.095l-15.249-3.646c-1.862-0.444-3.01-2.314-2.566-4.177
	c0.447-1.861,2.313-3.015,4.177-2.565l15.249,3.646c1.862,0.445,3.01,2.315,2.566,4.177
	C109.723,161.611,108.303,162.68,106.735,162.68 M122.126,162.292c-1.349,0-2.633-0.792-3.192-2.112
	c-0.748-1.763,0.074-3.798,1.837-4.544c0.313-0.134,0.606-0.278,0.868-0.434l12.23-7.286c1.638-0.979,3.771-0.447,4.75,1.202
	c0.981,1.644,0.439,3.771-1.203,4.75l-12.241,7.296c-0.521,0.309-1.085,0.593-1.699,0.853
	C123.035,162.206,122.577,162.292,122.126,162.292 M76.237,155.387c-0.267,0-0.537-0.029-0.808-0.095l-15.249-3.648
	c-1.862-0.446-3.011-2.313-2.566-4.177c0.447-1.859,2.308-3.021,4.177-2.565l15.249,3.648c1.861,0.447,3.01,2.315,2.565,4.177
	C79.224,154.318,77.805,155.387,76.237,155.387 M45.738,148.092c-0.266,0-0.537-0.029-0.807-0.095l-15.249-3.646
	c-1.862-0.444-3.011-2.315-2.566-4.177c0.444-1.861,2.31-3.019,4.176-2.565l15.249,3.646c1.862,0.444,3.011,2.315,2.566,4.177
	C48.726,147.023,47.307,148.092,45.738,148.092 M149.111,146.331c-1.181,0-2.331-0.603-2.979-1.692
	c-0.981-1.642-0.442-3.771,1.202-4.75l13.469-8.028c1.641-0.979,3.771-0.446,4.75,1.202c0.981,1.644,0.442,3.771-1.203,4.75
	l-13.468,8.028C150.327,146.172,149.716,146.331,149.111,146.331 M15.242,140.799c-0.266,0-0.537-0.029-0.807-0.094l-7.584-1.815
	C0.668,137.414,0,133.897,0,132.456c0-1.215,0.426-3.006,2.459-4.642c1.492-1.201,3.669-0.964,4.874,0.527
	c0.851,1.059,0.98,2.465,0.45,3.62c0.196,0.062,0.422,0.126,0.679,0.187l7.584,1.814c1.861,0.447,3.01,2.315,2.565,4.177
	C18.23,139.73,16.81,140.799,15.242,140.799 M176.049,130.276c-1.18,0-2.331-0.603-2.979-1.69c-0.981-1.646-0.442-3.772,1.2-4.752
	l13.467-8.028c1.647-0.979,3.772-0.445,4.752,1.2c0.981,1.645,0.442,3.772-1.2,4.752l-13.467,8.028
	C177.265,130.118,176.653,130.276,176.049,130.276 M18.07,125.903c-1.18,0-2.331-0.603-2.979-1.692
	c-0.981-1.644-0.442-3.771,1.203-4.75l13.466-8.026c1.641-0.978,3.771-0.447,4.75,1.202c0.982,1.644,0.443,3.771-1.202,4.75
	l-13.467,8.027C19.286,125.747,18.674,125.903,18.07,125.903 M202.984,114.218c-1.181,0-2.331-0.603-2.979-1.692
	c-0.981-1.643-0.442-3.771,1.202-4.75l13.467-8.025c1.639-0.979,3.771-0.447,4.75,1.202c0.981,1.643,0.442,3.771-1.203,4.75
	l-13.466,8.026C204.2,114.06,203.589,114.218,202.984,114.218 M203.997,87.434c-0.266,0-0.537-0.029-0.808-0.095l-15.249-3.646
	c-1.861-0.444-3.01-2.315-2.565-4.176c0.446-1.862,2.308-3.018,4.177-2.566l15.249,3.646c1.861,0.445,3.009,2.316,2.565,4.177
	C206.984,86.365,205.565,87.434,203.997,87.434"/>
<path d="M229.955,98.101c-1.058,0-2.104-0.483-2.781-1.396c-0.823-1.104-0.89-2.537-0.289-3.681
	c-0.174-0.052-0.367-0.104-0.58-0.156c-1.861-0.444-3.01-2.314-2.565-4.177c0.445-1.86,2.306-3.019,4.177-2.565
	c5.153,1.232,6.435,3.919,6.742,5.411c0.21,1.022,0.372,3.64-2.636,5.878C231.402,97.877,230.676,98.101,229.955,98.101"/>
<path d="M128.192,101.416c-3.689,2.2-9.063,3.416-14.301,3.416c-2.354,0-4.68-0.246-6.815-0.756L5.564,79.796
	c-0.724-0.173-1.385-0.378-2.019-0.596v24.035c0,0,0.148,1.856,2.73,2.565s102.952,24.714,102.952,24.714s7.701,2.285,15.467-2.344
	c7.766-4.629,103.452-61.641,104.704-62.411c0.837-0.514,1.928-1.164,1.928-2.776V39.942L128.192,101.416z"/>
<path d="M227.168,24.785L125.655,0.507c-4.543-1.086-10.914-0.369-14.233,1.608L5.484,65.262c-3.319,1.978-2.313,4.46,2.23,5.545
	l101.513,24.28c4.544,1.086,10.915,0.369,14.234-1.609l105.936-63.146C232.718,28.352,231.712,25.872,227.168,24.785"/>
</svg>
