<?xml version="1.0" encoding="utf-8"?>
<!-- Generator: Adobe Illustrator 15.0.0, SVG Export Plug-In . SVG Version: 6.00 Build 0)  -->
<!DOCTYPE svg PUBLIC "-//W3C//DTD SVG 1.1//EN" "http://www.w3.org/Graphics/SVG/1.1/DTD/svg11.dtd">
<svg version="1.1" id="Layer_1" xmlns="http://www.w3.org/2000/svg" xmlns:xlink="http://www.w3.org/1999/xlink" x="0px" y="0px"
	 width="248.117px" height="203.488px" viewBox="0 0 248.117 203.488" enable-background="new 0 0 248.117 203.488"
	 xml:space="preserve">
<path d="M112.744,159.225l16.366-37.749l-27.735-29.77l13.232-30.278l-33.453-7.884l-2.415-18.168L6.366,64.631
	c-5.211,2.106-7.728,8.038-5.622,13.25l48.199,119.241c2.107,5.212,8.039,7.729,13.251,5.622l71.352-29.106l0.145-6.616
	L112.744,159.225z"/>
<path d="M240.657,143.921c5.417-1.503,8.59-7.111,7.087-12.528L213.36,7.459c-1.503-5.416-7.112-8.589-12.528-7.086l-66.009,18.313
	l-11.82,20.605l15.267,24.172l-17.811,25.699l22.9,32.568l-22.9,34.096l13.087,17.812L240.657,143.921z"/>
</svg>
