<?xml version="1.0" encoding="utf-8"?>
<!-- Generator: Adobe Illustrator 15.0.0, SVG Export Plug-In . SVG Version: 6.00 Build 0)  -->
<!DOCTYPE svg PUBLIC "-//W3C//DTD SVG 1.1//EN" "http://www.w3.org/Graphics/SVG/1.1/DTD/svg11.dtd">
<svg version="1.1" id="Layer_1" xmlns="http://www.w3.org/2000/svg" xmlns:xlink="http://www.w3.org/1999/xlink" x="0px" y="0px"
	 width="233.396px" height="231.252px" viewBox="0 0 233.396 231.252" enable-background="new 0 0 233.396 231.252"
	 xml:space="preserve">
<polygon points="68.59,211.564 61.683,216.497 10.796,169.535 15.159,162.254 29.153,175.167 116.502,80.519 146.364,73.686 
	141.945,104 54.597,198.65 "/>
<path d="M38.863,203.446l-25.629,27.771c0,0-4.416,0.637-8.964-3.561c-4.548-4.196-4.266-8.648-4.266-8.648l25.629-27.772
	L38.863,203.446z"/>
<polygon points="63.446,112.312 73.499,106.073 54.842,82.631 93.256,78.481 94.99,44.024 117.393,58.09 152.88,40.904 
	157.626,80.638 184.424,87.354 162.238,100.54 178.184,128.951 147.227,128.006 144.521,166.648 120.164,147.961 114.693,158.453 
	156.804,221.555 163.244,144.938 225.831,166.887 187.265,105.806 233.396,84.78 176.745,65.747 173.331,0 118.389,38.757 
	72.828,6.198 75.425,60.522 0.874,63.731 "/>
</svg>
