<?xml version="1.0" encoding="utf-8"?>
<!-- Generator: Adobe Illustrator 15.0.0, SVG Export Plug-In . SVG Version: 6.00 Build 0)  -->
<!DOCTYPE svg PUBLIC "-//W3C//DTD SVG 1.1//EN" "http://www.w3.org/Graphics/SVG/1.1/DTD/svg11.dtd">
<svg version="1.1" id="Layer_1" xmlns="http://www.w3.org/2000/svg" xmlns:xlink="http://www.w3.org/1999/xlink" x="0px" y="0px"
	 width="231.376px" height="231.377px" viewBox="0 0 231.376 231.377" enable-background="new 0 0 231.376 231.377"
	 xml:space="preserve">
<path d="M115.688,0C51.795,0,0,51.796,0,115.688s51.795,115.688,115.688,115.688c63.894,0,115.688-51.796,115.688-115.688
	S179.582,0,115.688,0 M115.688,202.755c-48.085,0-87.066-38.981-87.066-87.066c0-48.084,38.981-87.066,87.066-87.066
	c48.086,0,87.066,38.982,87.066,87.066C202.754,163.773,163.774,202.755,115.688,202.755"/>
<path d="M115.688,42.753c-40.281,0-72.936,32.655-72.936,72.936c0,40.281,32.655,72.936,72.936,72.936s72.936-32.654,72.936-72.936
	C188.624,75.408,155.969,42.753,115.688,42.753 M115.688,156.389c-22.478,0-40.699-18.223-40.699-40.7
	c0-22.478,18.221-40.7,40.699-40.7c22.479,0,40.7,18.222,40.7,40.7C156.388,138.166,138.167,156.389,115.688,156.389"/>
</svg>
