<?xml version="1.0" encoding="utf-8"?>
<!-- Generator: Adobe Illustrator 15.0.0, SVG Export Plug-In . SVG Version: 6.00 Build 0)  -->
<!DOCTYPE svg PUBLIC "-//W3C//DTD SVG 1.1//EN" "http://www.w3.org/Graphics/SVG/1.1/DTD/svg11.dtd">
<svg version="1.1" id="Layer_1" xmlns="http://www.w3.org/2000/svg" xmlns:xlink="http://www.w3.org/1999/xlink" x="0px" y="0px"
	 width="207.486px" height="204.917px" viewBox="0 0 207.486 204.917" enable-background="new 0 0 207.486 204.917"
	 xml:space="preserve">
<path d="M144.833,164.761c-0.265-0.289-0.522-0.57-15.026-17.827c-23.407,25.771-29.183,31.563-31.515,33.557
	c-5.356,4.579-11.614,6.999-18.097,6.999c-8.252,0-20.037-4.663-28.364-17.75l-6.354-9.987l8.236-8.502
	c1.399-1.457,12.684-14.061,24.632-27.405c5.092-5.688,10.692-11.941,16.549-18.477C82.123,90.157,64.796,69.509,64.023,68.542
	l-8.34-10.432l9.399-9.49c7.366-7.436,28.567-20.721,44.593-20.721c9.027,0,14.48,3.889,17.466,7.152
	c0.178,0.194,0.55,0.602,15.037,17.815c1.465-1.613,2.86-3.147,4.191-4.608V10c0-5.523-4.478-10-10-10H10C4.477,0,0,4.477,0,10
	v184.917c0,5.523,4.477,10,10,10h126.369c5.522,0,10-4.477,10-10v-28.647C145.8,165.762,145.284,165.254,144.833,164.761"/>
<path d="M207.486,38.125c-3.226-5.069-13.438-16.479-24.059-7.402c-3.627,3.099-21.14,22.223-41.666,44.949
	c-14.068-16.728-25.406-30.188-25.688-30.496c-7.167-7.833-32.858,6.453-40.334,14c0.646,0.807,19.664,23.474,39.012,46.516
	c-25.126,28.005-47.978,53.635-50.265,55.995c3.226,5.069,13.439,16.479,24.06,7.402c3.627-3.101,21.149-22.234,41.683-44.969
	c14.046,16.72,25.37,30.188,25.671,30.516c7.166,7.833,32.857-6.453,40.333-14c-1.888-2.362-20.29-24.297-38.985-46.544
	C182.364,66.098,205.2,40.484,207.486,38.125"/>
</svg>
