<?xml version="1.0" encoding="utf-8"?>
<!-- Generator: Adobe Illustrator 15.0.0, SVG Export Plug-In . SVG Version: 6.00 Build 0)  -->
<!DOCTYPE svg PUBLIC "-//W3C//DTD SVG 1.1//EN" "http://www.w3.org/Graphics/SVG/1.1/DTD/svg11.dtd">
<svg version="1.1" id="Layer_1" xmlns="http://www.w3.org/2000/svg" xmlns:xlink="http://www.w3.org/1999/xlink" x="0px" y="0px"
	 width="277.161px" height="239.312px" viewBox="0 0 277.161 239.312" enable-background="new 0 0 277.161 239.312"
	 xml:space="preserve">
<path d="M258.506,113.524c-1.537-29.632-13.804-57.273-34.94-78.411C200.924,12.472,170.818,0,138.799,0
	C106.78,0,76.678,12.472,54.037,35.113c-12.552,12.553-21.97,27.399-27.876,43.593L60.947,43.24l9.642,34.622
	c14.131-22.859,39.419-38.124,68.21-38.124c38.354,0,70.493,27.083,78.314,63.128l-16.708-4.302l21.265,76.343l55.491-56.579
	L258.506,113.524z"/>
<path d="M216.219,196.067l-9.642-34.621c-14.127,22.864-39.42,38.129-68.215,38.129c-38.353,0-70.493-27.083-78.314-63.128
	l16.706,4.303l-21.26-76.345L0,120.981l18.655,4.805c1.536,29.634,13.802,57.275,34.94,78.413
	c22.641,22.645,52.748,35.113,84.767,35.113s62.121-12.469,84.761-35.113c12.557-12.558,21.985-27.404,27.886-43.604
	L216.219,196.067z"/>
</svg>
