<?xml version="1.0" encoding="utf-8"?>
<!-- Generator: Adobe Illustrator 15.0.0, SVG Export Plug-In . SVG Version: 6.00 Build 0)  -->
<!DOCTYPE svg PUBLIC "-//W3C//DTD SVG 1.1//EN" "http://www.w3.org/Graphics/SVG/1.1/DTD/svg11.dtd">
<svg version="1.1" id="Layer_1" xmlns="http://www.w3.org/2000/svg" xmlns:xlink="http://www.w3.org/1999/xlink" x="0px" y="0px"
	 width="246.244px" height="204.917px" viewBox="0 0 246.244 204.917" enable-background="new 0 0 246.244 204.917"
	 xml:space="preserve">
<path d="M231.244,48.547h-48.373c4.408,4.521,8.33,9.532,11.752,15h36.621v126.369H31.327c0,8.271,6.729,15,15,15h184.917
	c8.271,0,15-6.729,15-15V63.547C246.244,55.276,239.516,48.547,231.244,48.547"/>
<path d="M201.315,121.006c-1.795-31.564-13.044-56.347-32.816-72.025c-22.121-17.542-50.464-19.933-75.188-17.155
	c-5.411-7.315-14.835-11.12-24.256-8.915C56.42,25.868,48.573,38.512,51.53,51.147c2.957,12.634,15.599,20.482,28.235,17.525
	c6.896-1.614,12.36-6.117,15.425-11.926c24.431-2.945,44.191,1.051,57.775,11.823c16.614,13.175,22.05,34.369,23.299,52.437h-18.353
	l31.165,53.971l31.164-53.971H201.315z"/>
<path d="M66.776,13.175c2.513-0.589,5.086-0.887,7.651-0.887c8.544,0,16.763,3.326,22.925,9.1c4.362-0.357,8.652-0.538,12.806-0.538
	c13.173,0,25.265,1.782,36.211,5.303V10c0-5.523-4.478-10-10-10H10C4.478,0,0,4.477,0,10v184.917c0,5.523,4.478,10,10,10h126.369
	c5.522,0,10-4.477,10-10V76.118c-8.839-6.837-21.024-10.311-36.24-10.311c-2.942,0-6.012,0.134-9.168,0.398
	c-4.678,6.088-11.338,10.43-18.917,12.205c-2.514,0.587-5.088,0.886-7.652,0.886c-15.629,0-29.034-10.638-32.599-25.87
	c-2.039-8.712-0.563-17.696,4.156-25.3C50.668,20.524,58.065,15.213,66.776,13.175z M47.422,93.939
	c0.445-0.869,1.34-1.47,2.384-1.47c1.484,0,2.687,1.204,2.687,2.688s-1.203,2.688-2.687,2.688c-1.043,0-1.938-0.601-2.383-1.469
	l-9.31,0.772v88.455l-6.786,6.45l-6.787-6.45V97.148l-9.309-0.772c-0.446,0.869-1.34,1.469-2.383,1.469
	c-1.485,0-2.688-1.204-2.688-2.688s1.203-2.688,2.688-2.688c1.044,0,1.938,0.601,2.384,1.47l12.333-1.023l1.179-25.479
	c-1.581-0.903-2.658-2.584-2.658-4.535c1.659,0,3.305-1.209,5.241-1.209c1.592,0,3.422,1.209,5.241,1.209
	c0,1.95-1.078,3.632-2.658,4.535l1.178,25.479L47.422,93.939z"/>
</svg>
