<?xml version="1.0" encoding="utf-8"?>
<!-- Generator: Adobe Illustrator 15.0.0, SVG Export Plug-In . SVG Version: 6.00 Build 0)  -->
<!DOCTYPE svg PUBLIC "-//W3C//DTD SVG 1.1//EN" "http://www.w3.org/Graphics/SVG/1.1/DTD/svg11.dtd">
<svg version="1.1" id="Layer_1" xmlns="http://www.w3.org/2000/svg" xmlns:xlink="http://www.w3.org/1999/xlink" x="0px" y="0px"
	 width="230.059px" height="193.699px" viewBox="0 0 230.059 193.699" enable-background="new 0 0 230.059 193.699"
	 xml:space="preserve">
<path d="M96.849,0C43.361,0,0,43.362,0,96.85c0,53.488,43.361,96.849,96.849,96.849c53.489,0,96.85-43.36,96.85-96.849
	C193.699,43.362,150.338,0,96.849,0 M96.849,179.676c-45.743,0-82.826-37.082-82.826-82.826s37.083-82.826,82.826-82.826
	c45.744,0,82.827,37.082,82.827,82.826S142.593,179.676,96.849,179.676"/>
<path d="M204.679,127.721c-1.471,1.036-3.42-0.376-2.886-2.095c2.827-9.089,4.352-18.757,4.352-28.776
	c0-10.02-1.524-19.688-4.352-28.776c-0.534-1.719,1.415-3.131,2.886-2.095l24.579,29.328c1.067,0.752,1.067,2.334,0,3.086
	L204.679,127.721z"/>
</svg>
