<?xml version="1.0" encoding="utf-8"?>
<!-- Generator: Adobe Illustrator 15.0.0, SVG Export Plug-In . SVG Version: 6.00 Build 0)  -->
<!DOCTYPE svg PUBLIC "-//W3C//DTD SVG 1.1//EN" "http://www.w3.org/Graphics/SVG/1.1/DTD/svg11.dtd">
<svg version="1.1" id="Layer_1" xmlns="http://www.w3.org/2000/svg" xmlns:xlink="http://www.w3.org/1999/xlink" x="0px" y="0px"
	 width="253.145px" height="180.819px" viewBox="0 0 253.145 180.819" enable-background="new 0 0 253.145 180.819"
	 xml:space="preserve">
<path d="M240.792,0H12.353C5.531,0,0,5.532,0,12.354v156.111c0,6.823,5.531,12.354,12.354,12.354h228.438
	c6.823,0,12.354-5.531,12.354-12.354V12.354C253.145,5.532,247.615,0,240.792,0z M126.573,170.16
	c-43.974,0-79.75-35.775-79.75-79.75s35.776-79.75,79.75-79.75c43.975,0,79.75,35.775,79.75,79.75S170.547,170.16,126.573,170.16z"
	/>
<path d="M126.573,20.66c-38.522,0-69.75,31.229-69.75,69.75s31.228,69.75,69.75,69.75c38.521,0,69.75-31.229,69.75-69.75
	S165.094,20.66,126.573,20.66z M120.811,93.858l-8.853,8.115h-38.51v-3.246l8.853-8.41h38.51V93.858z M157.697,135.083
	c-19.97,8.756-30.002,13.132-30.1,13.132l-2.36-4.722c0.787,0,1.746-0.343,2.877-1.033c1.13-0.686,2.089-1.475,2.877-2.36
	c2.066-2.36,3.099-5.95,3.099-10.771V56.441c0-2.066-0.689-3.762-2.064-5.09c-1.38-1.328-2.657-2.163-3.838-2.509
	c-1.181-0.343-2.706-0.712-4.573-1.106V44.49l19.328-9.886c2.163,0.886,4.181,2.338,6.05,4.352c1.867,2.018,2.804,3.91,2.804,5.681
	v78.938c0,2.656,0.442,4.55,1.328,5.68c0.885,1.133,2.408,1.696,4.573,1.696V135.083z"/>
</svg>
