<?xml version="1.0" encoding="utf-8"?>
<!-- Generator: Adobe Illustrator 15.0.0, SVG Export Plug-In . SVG Version: 6.00 Build 0)  -->
<!DOCTYPE svg PUBLIC "-//W3C//DTD SVG 1.1//EN" "http://www.w3.org/Graphics/SVG/1.1/DTD/svg11.dtd">
<svg version="1.1" id="Layer_1" xmlns="http://www.w3.org/2000/svg" xmlns:xlink="http://www.w3.org/1999/xlink" x="0px" y="0px"
	 width="249.438px" height="285.066px" viewBox="0 0 249.438 285.066" enable-background="new 0 0 249.438 285.066"
	 xml:space="preserve">
<path d="M125,285.602c-0.69,0-1.381-0.179-2-0.536L2.562,215.532c-1.238-0.714-2-2.035-2-3.464V72.998c0-1.429,0.762-2.75,2-3.464
	L123,0c1.238-0.715,2.764-0.714,4,0l120.438,69.534c1.237,0.714,2,2.035,2,3.464v139.07c0,1.429-0.763,2.75-2,3.464l-120.438,69.534
	C126.381,285.423,125.69,285.602,125,285.602z M8.562,209.758L125,276.983l116.438-67.225V75.308L125,8.083L8.562,75.308V209.758z"
	/>
<polygon points="220.617,197.738 125,252.942 29.382,197.738 29.382,87.328 125,32.123 220.617,87.328 "/>
</svg>
