<?xml version="1.0" encoding="utf-8"?>
<!-- Generator: Adobe Illustrator 15.0.0, SVG Export Plug-In . SVG Version: 6.00 Build 0)  -->
<!DOCTYPE svg PUBLIC "-//W3C//DTD SVG 1.1//EN" "http://www.w3.org/Graphics/SVG/1.1/DTD/svg11.dtd">
<svg version="1.1" id="Layer_1" xmlns="http://www.w3.org/2000/svg" xmlns:xlink="http://www.w3.org/1999/xlink" x="0px" y="0px"
	 width="246.243px" height="204.916px" viewBox="0 0 246.243 204.916" enable-background="new 0 0 246.243 204.916"
	 xml:space="preserve">
<path d="M231.243,48.547h-48.372c4.408,4.521,8.33,9.532,11.751,15h36.621v126.369H31.327c0,8.271,6.729,15,15,15h184.917
	c8.271,0,15-6.729,15-15V63.547C246.243,55.276,239.515,48.547,231.243,48.547"/>
<path d="M119.416,24.454c9.569,0.648,18.575,2.207,26.954,4.633V10c0-5.524-4.477-10-10-10h-18.196L119.416,24.454z"/>
<path d="M109.893,34.11c31.615,0.191,56.937,10.168,73.598,29.119c18.642,21.204,22.467,49.389,20.946,74.222
	c7.58,5.033,11.858,14.251,10.136,23.772c-2.313,12.769-14.542,21.247-27.312,18.936c-12.767-2.312-21.247-14.542-18.934-27.311
	c1.261-6.969,5.48-12.654,11.128-16.011c1.702-24.548-3.293-44.081-14.74-57.101c-14.001-15.924-35.442-20.277-53.552-20.608
	l0.931,18.329L56.614,49.071l52.319-33.862L109.893,34.11z"/>
<path d="M121.722,69.853l1.239,24.396l-86.32-44.163L114.028,0H10C4.477,0,0,4.477,0,10v184.916c0,5.524,4.477,10,10,10h126.369
	c5.522,0,10-4.476,10-10V77.518C139.605,73.592,131.373,71.027,121.722,69.853z M49.806,97.844c-1.043,0-1.938-0.601-2.383-1.469
	l-9.31,0.772v88.455l-6.787,6.45l-6.786-6.45V97.147l-9.31-0.772c-0.446,0.868-1.339,1.469-2.382,1.469
	c-1.485,0-2.688-1.204-2.688-2.688s1.203-2.688,2.688-2.688c1.043,0,1.938,0.601,2.383,1.47l12.334-1.023l1.179-25.478
	c-1.581-0.902-2.659-2.584-2.659-4.535c1.66,0,3.305-1.209,5.241-1.209c1.592,0,3.423,1.209,5.241,1.209
	c0,1.951-1.078,3.632-2.659,4.535l1.18,25.478l12.333,1.023c0.445-0.869,1.34-1.47,2.383-1.47c1.485,0,2.688,1.204,2.688,2.688
	S51.291,97.844,49.806,97.844z"/>
</svg>
