<?xml version="1.0" encoding="utf-8"?>
<!-- Generator: Adobe Illustrator 15.0.0, SVG Export Plug-In . SVG Version: 6.00 Build 0)  -->
<!DOCTYPE svg PUBLIC "-//W3C//DTD SVG 1.1//EN" "http://www.w3.org/Graphics/SVG/1.1/DTD/svg11.dtd">
<svg version="1.1" id="Layer_1" xmlns="http://www.w3.org/2000/svg" xmlns:xlink="http://www.w3.org/1999/xlink" x="0px" y="0px"
	 width="240px" height="199.457px" viewBox="0 0 240 199.457" enable-background="new 0 0 240 199.457" xml:space="preserve">
<path d="M2.101,0.332c8.271,7.591,36.133,30.492,75.469,34.946c0.598,0.068,1.066,0.546,1.11,1.147
	c1.565,21.368,5.244,53.902,28.692,98.315c0.35,0.663,1.205,0.874,1.822,0.448c2.786-1.925,5.61-3.955,6.998-4.959
	c0.505-0.366,0.662-1.044,0.37-1.596c-2.657-5.032-14.981-29.089-20.245-52.115c-0.126-0.551,0.132-1.116,0.631-1.382
	c12.297-6.551,55.927-26.726,65.282-31.042c0.83-0.383,1.774,0.224,1.774,1.138v77.94c0,0.322-0.125,0.632-0.348,0.865
	l-36.98,38.679c-0.236,0.248-0.361,0.582-0.346,0.925l1.644,34.503c0.034,0.715-0.536,1.312-1.251,1.312H66.808
	c-0.889,0-1.494-0.899-1.16-1.723l12.865-31.71c0.061-0.15,0.092-0.31,0.092-0.471v-26.455c0-0.476-0.269-0.907-0.693-1.121
	c-1.973-0.991-7.372-4.434-5.811-11.81c0.151-0.714-0.351-1.404-1.076-1.486c-11.17-1.271-26.378-5.539-32.903-13.715
	c-0.707-0.886-0.006-2.17,1.12-2.039c7.669,0.892,16.389-0.776,21.218-1.946c1.174-0.284,1.302-1.904,0.188-2.369
	c-9.344-3.904-34.436-16.326-40.807-39.305c-0.295-1.066,0.821-1.965,1.799-1.449c12.901,6.796,24.064,8.896,30.198,9.537
	c1.313,0.137,1.91-1.59,0.799-2.301C40.449,63.286,5.775,38.132,0.017,1.454C-0.167,0.285,1.229-0.468,2.101,0.332"/>
<path d="M146.758,199.457h91.741c0.835,0,1.507-0.681,1.501-1.516c-0.069-9.307-3.463-58.345-67.249-58.685
	c-0.421-0.003-0.826,0.172-1.112,0.48c-4.581,4.938-24.422,25.337-27.706,28.712c-0.295,0.303-0.446,0.715-0.421,1.137l1.748,28.463
	C145.309,198.84,145.965,199.457,146.758,199.457"/>
</svg>
