<?xml version="1.0" encoding="utf-8"?>
<!-- Generator: Adobe Illustrator 15.0.0, SVG Export Plug-In . SVG Version: 6.00 Build 0)  -->
<!DOCTYPE svg PUBLIC "-//W3C//DTD SVG 1.1//EN" "http://www.w3.org/Graphics/SVG/1.1/DTD/svg11.dtd">
<svg version="1.1" id="Layer_1" xmlns="http://www.w3.org/2000/svg" xmlns:xlink="http://www.w3.org/1999/xlink" x="0px" y="0px"
	 width="228px" height="277.879px" viewBox="0 0 228 277.879" enable-background="new 0 0 228 277.879" xml:space="preserve">
<path d="M228,223.339v2.54c0,28.721-51.04,52-114,52c-62.959,0-114-23.279-114-52c0-0.239,0.01-0.479,0.02-0.72v-1.79
	c6.65,7.83,16.5,14.83,29.219,20.63c22.811,10.4,52.91,16.13,84.761,16.13S175.95,254.4,198.76,244
	C211.5,238.19,221.35,231.18,228,223.339"/>
<path d="M228,198.13c0,28.72-51.04,52-114,52c-62.959,0-114-23.28-114-52c0-21.69,29.12-40.28,70.5-48.07v58.07h87v-58.07
	C198.879,157.85,228,176.44,228,198.13"/>
<polygon points="190.29,132.12 147.5,132.12 147.5,198.13 80.5,198.13 80.5,132.12 37.71,132.12 114,0 "/>
</svg>
