<?xml version="1.0" encoding="utf-8"?>
<!-- Generator: Adobe Illustrator 15.0.0, SVG Export Plug-In . SVG Version: 6.00 Build 0)  -->
<!DOCTYPE svg PUBLIC "-//W3C//DTD SVG 1.1//EN" "http://www.w3.org/Graphics/SVG/1.1/DTD/svg11.dtd">
<svg version="1.1" id="Layer_1" xmlns="http://www.w3.org/2000/svg" xmlns:xlink="http://www.w3.org/1999/xlink" x="0px" y="0px"
	 width="228px" height="191.963px" viewBox="0 0 228 191.963" enable-background="new 0 0 228 191.963" xml:space="preserve">
<path d="M95.982,0C42.972,0,0,42.972,0,95.982c0,53.01,42.972,95.981,95.982,95.981s95.982-42.972,95.982-95.981
	C191.964,42.972,148.993,0,95.982,0 M95.982,178.067c-45.334,0-82.085-36.75-82.085-82.085c0-45.334,36.751-82.085,82.085-82.085
	c45.334,0,82.084,36.751,82.084,82.085C178.067,141.317,141.317,178.067,95.982,178.067"/>
<path d="M202.847,126.577c-1.458,1.027-3.39-0.373-2.859-2.076c2.801-9.008,4.312-18.589,4.312-28.519
	c0-9.929-1.511-19.51-4.312-28.518c-0.53-1.703,1.401-3.104,2.859-2.076l24.359,29.065c1.057,0.745,1.057,2.313,0,3.059
	L202.847,126.577z"/>
<polygon points="95.982,28.696 113.907,52.708 143.56,48.404 139.255,78.057 163.268,95.982 139.255,113.907 143.56,143.56 
	113.907,139.255 95.982,163.268 78.057,139.255 48.404,143.56 52.709,113.907 28.696,95.982 52.709,78.057 48.404,48.404 
	78.057,52.708 "/>
</svg>
