<?xml version="1.0" encoding="utf-8"?>
<!-- Generator: Adobe Illustrator 15.0.0, SVG Export Plug-In . SVG Version: 6.00 Build 0)  -->
<!DOCTYPE svg PUBLIC "-//W3C//DTD SVG 1.1//EN" "http://www.w3.org/Graphics/SVG/1.1/DTD/svg11.dtd">
<svg version="1.1" id="Layer_1" xmlns="http://www.w3.org/2000/svg" xmlns:xlink="http://www.w3.org/1999/xlink" x="0px" y="0px"
	 width="190.549px" height="227.453px" viewBox="0 0 190.549 227.453" enable-background="new 0 0 190.549 227.453"
	 xml:space="preserve">
<path d="M158.116,200.815c-0.273-13.057,6.857-25.019,3.338-46.368s-22.37-48.23-37.39-69.354
	C109.043,63.97,89.842,37.339,70.831,27.004c-19.009-10.335-32.65-7.527-44.893-12.072C13.695,10.386,7.671-2.557,3.447,0.447
	C1.073,2.134,1.533,6.164,4.259,10.862l18.177,143.989l2.368,3.331l130.038,64.446c3.543,4.117,7.199,5.875,9.571,4.188
	C168.638,223.812,158.39,213.872,158.116,200.815 M30.718,151.47L14.402,22.234c0.024,0.02,0.046,0.036,0.071,0.055
	c10.503,8.434,26.666,6.715,42.221,15.298c13.848,7.645,27.632,19.576,54.168,56.893c26.536,37.317,33.278,54.255,35.954,69.845
	c3,17.512-3.932,32.215,0.587,44.904c0.01,0.029,0.018,0.056,0.027,0.085L30.718,151.47z"/>
<polygon points="58.969,141.862 62.504,157.105 26.786,181.988 21.138,157.646 0,144.319 35.718,119.435 48.956,127.779 
	145.01,59.597 131.089,51.045 190.549,37.817 158.531,89.636 155.024,73.679 "/>
</svg>
